<svg id="svg" version="1.1" viewBox="0 0 300 267.0441676104191" width="300" height="267.0441676104191" xmlns="http://www.w3.org/2000/svg"><svg xmlns="http://www.w3.org/2000/svg"><defs><clipPath id="clip-1"><rect x="0" y="0" transform="scale(0.14648,0.14649)" width="2048" height="1823" fill="none"/></clipPath><linearGradient x1="106.95483" y1="151.32747" x2="53.84092" y2="126.25828" gradientUnits="userSpaceOnUse" id="color-1"><stop offset="0" stop-color="#000000"/><stop offset="1" stop-color="#21242c"/></linearGradient><linearGradient x1="106.55918" y1="185.03246" x2="120.79995" y2="172.59286" gradientUnits="userSpaceOnUse" id="color-2"><stop offset="0" stop-color="#18253f"/><stop offset="1" stop-color="#475877"/></linearGradient><linearGradient x1="190.22314" y1="62.25088" x2="230.60889" y2="55.19142" gradientUnits="userSpaceOnUse" id="color-3"><stop offset="0" stop-color="#181e28"/><stop offset="1" stop-color="#525155"/></linearGradient><linearGradient x1="159.22266" y1="145.35743" x2="194.49609" y2="174.89415" gradientUnits="userSpaceOnUse" id="color-4"><stop offset="0" stop-color="#3a3b44"/><stop offset="1" stop-color="#58595f"/></linearGradient><linearGradient x1="248.69531" y1="120.28472" x2="260.56934" y2="136.66699" gradientUnits="userSpaceOnUse" id="color-5"><stop offset="0" stop-color="#353940"/><stop offset="1" stop-color="#605e63"/></linearGradient><linearGradient x1="188.49463" y1="54.38575" x2="173.75684" y2="57.81016" gradientUnits="userSpaceOnUse" id="color-6"><stop offset="0" stop-color="#000000"/><stop offset="1" stop-color="#222529"/></linearGradient></defs><g clip-path="url(#clip-1)" fill="none" fill-rule="nonzero" stroke="none" stroke-width="1" stroke-linecap="butt" stroke-linejoin="miter" stroke-miterlimit="10" stroke-dasharray="" stroke-dashoffset="0" font-family="none" font-weight="none" font-size="none" text-anchor="none" style="mix-blend-mode: normal"><path d="M193.0459,15.42572c1.01807,-0.6066 2.96338,-1.68163 4.01074,-1.09611c5.79785,3.24316 12.29297,8.50875 17.63232,12.30743c2.00977,1.42941 10.91455,7.5975 11.3877,8.28262c0.88477,0.78443 1.64941,1.3985 1.76953,2.66004c0.6416,6.70657 0.50098,13.56037 0.79834,20.31513c0.28418,6.47644 0.6416,13.12984 0.62549,19.59852c1.15283,0.11646 10.48535,7.50258 12.01904,8.67183c5.5459,4.20107 11.06982,8.43086 16.57178,12.68907c2.6543,2.06868 5.3335,4.1041 8.0376,6.10554c1.38721,1.0298 3.58447,2.55032 4.85596,3.62421c0.39551,0.40196 0.80127,0.8026 1.17773,1.22184c0.42773,2.29807 0.14209,5.19337 -0.10986,7.53173l-0.59766,9.68757c-0.12891,1.97903 -0.25049,4.68814 -0.60059,6.61648c-1.33008,1.23004 -4.66113,3.17684 -6.30615,4.16079c-4.86914,2.87157 -9.76611,5.69348 -14.69238,8.46558c-1.47803,0.8275 -5.55762,2.91932 -6.71484,3.72207c-1.22754,0.49219 -2.08447,0.8672 -3.36475,0.24756c-1.96143,-1.38722 -3.97559,-3.43363 -5.99854,-4.94581c-0.1084,2.2739 -0.0249,5.29738 -1.89258,6.82523c-2.02734,1.65822 -3.88916,1.87649 -4.93359,4.7315c2.58398,2.04055 11.39209,9.11583 12.79248,11.56215c0.12158,5.32477 -0.479,11.15492 -0.64746,16.50898c-0.04834,1.52639 -0.15527,3.92583 -1.29199,4.99811c-2.58545,2.31009 -6.16992,4.07231 -9.20361,5.75837c-1.32275,0.79395 -3.05566,1.92336 -4.47217,2.43167c-3.89502,-0.40137 -6.25049,-5.51813 -9.76172,-6.66805c0.05273,1.79153 -1.19531,20.85083 -2.12842,21.49977c-3.47607,2.41556 -9.9668,6.01032 -13.82812,8.19004l-17.72461,10.13244c-0.85547,0.60352 -1.4751,1.08986 -2.43604,1.50148l-0.78076,-0.11865c-2.87695,-0.41309 -4.02539,-2.34378 -5.54297,-4.54253c-1.67725,0.88038 -3.56543,1.85012 -5.32617,2.56204c-8.16211,4.94244 -16.875,9.41906 -25.09058,14.32048c-1.31558,0.7837 -2.96133,1.70949 -4.33491,2.36575c-1.73027,1.30812 -3.83174,2.52689 -5.752,3.5391c-2.67715,1.41213 -6.51562,3.39262 -8.86406,0.36329c-0.58784,-0.42481 -3.98188,-4.18364 -4.69321,-4.9776l-9.21987,-10.30676c-2.51353,-2.80521 -5.05034,-5.58991 -7.61016,-8.3541c-1.77773,-1.94534 -3.65815,-3.90825 -5.21646,-6.0323c-1.38149,-1.88381 -1.00942,-15.03826 -0.5313,-17.96359l0.45659,-0.75147c4.22446,-2.6221 9.57554,-5.55768 13.98662,-7.9c-0.80273,-0.99025 -2.04961,-2.1929 -2.95254,-3.18314l-6.24917,-6.92879c-1.12632,-1.23781 -3.0813,-3.21683 -3.82134,-4.66412c-1.13906,-2.22659 -0.57158,-4.83404 -1.62759,-7.13241l-0.0772,-0.16406c-0.48413,-0.48194 -1.15122,-0.85401 -1.7376,-1.22316c-2.11567,-1.83254 -6.6791,-6.7076 -8.29424,-9.0294c-2.8686,0.63721 -16.26284,9.90832 -17.80576,8.92686c-0.03501,-0.02197 -0.06694,-0.04981 -0.10034,-0.07471c-0.69287,-0.30176 -0.90161,-0.51856 -1.46089,-0.99757c-1.71694,-1.80178 -3.4626,-3.79545 -5.16987,-5.6778c-2.53989,-2.80081 -5.63013,-5.85651 -7.54424,-9.10997c-0.52104,-1.0298 -1.06904,-2.58109 -1.1896,-3.71635c-0.82427,-7.78032 -1.96172,-15.89858 -2.5563,-23.67567c-0.98188,-6.54002 1.3541,-6.89744 6.78589,-9.18966c0.78208,-0.43814 1.621,-0.86544 2.41714,-1.286c0.53848,-0.46744 2.61167,-1.45842 3.32241,-1.88293c3.04351,-1.81819 7.83164,-3.85346 10.59785,-5.76071c-2.8916,-2.97879 -5.87271,-5.87966 -8.80898,-8.81553c-1.82241,-1.82243 -4.76763,-4.26846 -5.97876,-6.51878c-1.46646,-2.72464 -2.47764,-18.73425 -2.62515,-22.74211c-0.78516,-5.72863 -1.14653,-11.74321 -1.84995,-17.50113c-0.4125,-3.37694 -0.68511,-7.14676 -0.83599,-10.55462c-0.04819,-0.41089 0.10239,-0.5962 0.29517,-0.96725c2.13926,-2.31697 31.42852,-17.26734 34.2019,-17.59752c0.8061,0.29136 1.88979,1.20822 2.56758,1.78347c6.05552,5.13932 11.77705,10.64031 17.66001,15.96948c4.09966,3.71386 8.34067,7.30907 12.33281,11.13763c0.62681,0.60103 2.50093,2.36106 2.92764,3.01307l0.65903,1.97405c0.78501,-0.45674 1.33315,-0.78619 2.07187,-1.31281c1.90313,-2.16668 24.77754,-14.27243 28.85566,-16.55073c1.85303,-0.79776 3.95068,-1.4735 4.88525,-3.32421c-0.08057,-0.79835 -0.02637,-1.58923 0.00293,-2.39153c1.8501,-2.11409 9.25195,-6.23035 12.03076,-7.82646c7.49121,-4.26978 15.0293,-8.45239 22.61719,-12.54683z" fill="#33353c"/><path d="M209.01855,166.4463c0.22266,-0.17578 0.46143,-0.86573 1.29639,-1.40187c3.4541,-2.22366 7.10156,-4.04741 10.70068,-6.03083c1.35352,-0.74561 2.8667,-1.72854 4.27881,-2.34671c0.28125,-0.12305 0.92725,0.08789 1.26563,0.15235l0.16113,0.0293c2.58398,2.04055 11.39209,9.11583 12.79248,11.56215c0.12158,5.32477 -0.479,11.15492 -0.64746,16.50898c-0.04834,1.52639 -0.15527,3.92583 -1.29199,4.99811c-2.58545,2.31009 -6.16992,4.07231 -9.20361,5.75837c-1.32275,0.79395 -3.05566,1.92336 -4.47217,2.43167c-3.89502,-0.40137 -6.25049,-5.51813 -9.76172,-6.66805c0.05273,1.79153 -1.19531,20.85083 -2.12842,21.49977c-3.47607,2.41556 -9.9668,6.01032 -13.82812,8.19004l-17.72461,10.13244c-0.85547,0.60352 -1.4751,1.08986 -2.43604,1.50148l-0.78076,-0.11865c-2.87695,-0.41309 -4.02539,-2.34378 -5.54297,-4.54253c-1.67725,0.88038 -3.56543,1.85012 -5.32617,2.56204c-8.16211,4.94244 -16.875,9.41906 -25.09058,14.32048c-1.31558,0.7837 -2.96133,1.70949 -4.33491,2.36575c-1.73027,1.30812 -3.83174,2.52689 -5.752,3.5391c-2.67715,1.41213 -6.51562,3.39262 -8.86406,0.36329c-0.58784,-0.42481 -3.98188,-4.18364 -4.69321,-4.9776l-9.21987,-10.30676c-2.51353,-2.80521 -5.05034,-5.58991 -7.61016,-8.3541c-1.77773,-1.94534 -3.65815,-3.90825 -5.21646,-6.0323c-1.38149,-1.88381 -1.00942,-15.03826 -0.5313,-17.96359l0.45659,-0.75147c4.22446,-2.6221 9.57554,-5.55768 13.98662,-7.9c1.30664,-0.58448 2.61226,-1.14992 3.88066,-1.81496c0.48706,-0.82618 0.67471,-1.55275 0.7686,-2.49173c1.73716,0.66065 2.67363,0.67677 4.31191,-0.04541c0.93501,2.15188 1.55405,5.04352 2.12959,7.37851c0.26133,-1.23341 0.34482,-3.15531 0.45234,-4.48101l0.58359,-6.81893c0.82588,0.96241 1.59038,2.2471 2.44277,3.31205c0.97749,-5.51081 1.49912,-10.83411 0.38833,-16.39765l2.29482,-0.09668c0.72056,0.72657 1.46382,1.459 2.17163,2.19583c1.42002,1.11329 7.25889,6.48494 8.16826,7.8121l11.30317,11.25453c0.65918,0.75294 1.68164,2.08596 2.52246,2.49466c1.64795,0.81153 2.97949,1.2129 4.80029,0.47608c1.16016,-0.58301 2.45508,-1.43849 3.5083,-2.19583l0.88037,-0.54053c2.88281,-0.95362 9.854,-5.57087 12.89063,-7.16024c5.17676,-2.71146 10.51465,-5.38336 15.63428,-8.20029c1.49707,-0.82325 4.20264,-2.40237 5.47852,-3.4644c-0.33252,-0.9756 1.51758,-3.49223 1.97461,-4.67877c2.55762,0.99904 8.31152,-2.77591 10.80469,-3.88774c1.10449,-0.49073 0.68115,-1.20412 2.12842,-1.17042z" fill="#080b0f"/><path d="M183.4834,202.90669c0.91699,1.86184 -0.09521,14.75847 -0.03369,18.07492c-1.97021,1.81643 -3.91553,2.76712 -3.95215,5.85505c-0.01611,1.32716 0.06152,3.4102 0.95801,4.42535c-0.85547,0.60352 -1.4751,1.08986 -2.43604,1.50148l-0.78076,-0.11865c-2.87695,-0.41309 -4.02539,-2.34378 -5.54297,-4.54253c-1.67725,0.88038 -3.56543,1.85012 -5.32617,2.56204c-8.16211,4.94244 -16.875,9.41906 -25.09058,14.32048c-1.31558,0.7837 -2.96133,1.70949 -4.33491,2.36575c-1.73027,1.30812 -3.83174,2.52689 -5.752,3.5391c-2.67715,1.41213 -6.51562,3.39262 -8.86406,0.36329c0.33867,0.11133 0.4314,0.16113 0.75615,0.31055c0.79409,-2.4346 0.47534,-9.3546 0.41353,-12.28579c0.54741,-3.3223 -0.08672,-3.08793 -0.12671,-5.55622c0.38145,-0.35157 0.4415,-0.24317 1.08677,-0.3208l0.13022,-0.18457c-0.43506,-1.62307 -2.73589,-3.15092 -3.4084,-4.81646c1.75825,1.29933 2.93965,3.91264 5.00083,4.10747c0.21724,0.02051 0.13066,-0.00439 0.31479,0.15967c-0.46875,0.69141 -1.81348,0.81153 -2.09897,1.70803c0.50039,0.54346 1.38164,0.25782 1.9229,-0.06299c11.4457,-6.79549 23.20474,-13.27018 34.77554,-19.83129l12.30908,-7.00936c2.50195,-1.4092 5.0874,-2.85941 7.68311,-4.0855c0.93896,-0.44239 1.39746,-0.4585 2.39648,-0.47901z" fill="#374a68"/><path d="M183.4834,202.90669c0.91699,1.86184 -0.09521,14.75847 -0.03369,18.07492c-1.97021,1.81643 -3.91553,2.76712 -3.95215,5.85505c-0.01611,1.32716 0.06152,3.4102 0.95801,4.42535c-0.85547,0.60352 -1.4751,1.08986 -2.43604,1.50148l-0.78076,-0.11865c-2.87695,-0.41309 -4.02539,-2.34378 -5.54297,-4.54253c-1.67725,0.88038 -3.56543,1.85012 -5.32617,2.56204c1.72705,-3.98442 13.86328,-6.8116 15.33691,-11.2267c1.19678,-3.58451 1.11621,-10.75208 1.16455,-14.60173c-11.67627,5.84187 -23.91357,13.17057 -35.25879,19.69359c-3.36431,1.91604 -6.74019,3.8101 -10.12808,5.6822c-1.76807,0.98585 -3.69639,1.91164 -5.34858,3.07767c-1.01411,0.71485 -1.70098,1.27443 -2.10923,2.49466c-0.79922,2.38626 -0.56045,11.72035 -0.25166,14.46404c1.37285,-0.68409 5.9042,-3.14945 7.16938,-2.8975c-1.73027,1.30812 -3.83174,2.52689 -5.752,3.5391c-2.67715,1.41213 -6.51562,3.39262 -8.86406,0.36329c0.33867,0.11133 0.4314,0.16113 0.75615,0.31055c0.79409,-2.4346 0.47534,-9.3546 0.41353,-12.28579c0.54741,-3.3223 -0.08672,-3.08793 -0.12671,-5.55622c0.38145,-0.35157 0.4415,-0.24317 1.08677,-0.3208l0.13022,-0.18457c-0.43506,-1.62307 -2.73589,-3.15092 -3.4084,-4.81646c1.75825,1.29933 2.93965,3.91264 5.00083,4.10747c0.21724,0.02051 0.13066,-0.00439 0.31479,0.15967c-0.46875,0.69141 -1.81348,0.81153 -2.09897,1.70803c0.50039,0.54346 1.38164,0.25782 1.9229,-0.06299c11.4457,-6.79549 23.20474,-13.27018 34.77554,-19.83129l12.30908,-7.00936c2.50195,-1.4092 5.0874,-2.85941 7.68311,-4.0855c0.93896,-0.44239 1.39746,-0.4585 2.39648,-0.47901z" fill="#33353c"/><path d="M171.6958,228.1023c8.53418,-5.80085 5.70557,-1.16163 6.32373,4.66119l-0.78076,-0.11865c-2.87695,-0.41309 -4.02539,-2.34378 -5.54297,-4.54253z" fill="#080b0f"/><path d="M210.5376,179.30485l0.24609,-0.06592c0.87012,-0.23584 1.49854,-0.77931 2.31299,-0.34717c1.55713,2.30862 -1.35937,9.66955 1.04004,12.548c0.05273,1.79153 -1.19531,20.85083 -2.12842,21.49977c-3.47607,2.41556 -9.9668,6.01032 -13.82812,8.19004l-17.72461,10.13244c-0.89648,-1.01515 -0.97412,-3.09818 -0.95801,-4.42535c0.03662,-3.08793 1.98193,-4.03862 3.95215,-5.85505c-0.06152,-3.31645 0.95068,-16.21308 0.03369,-18.07492c-0.90088,-1.14259 -1.6626,-2.20169 -2.50195,-3.38822c0.22266,-1.17775 0.27979,-2.81107 1.02393,-3.77934c1.34912,-1.76076 20.46094,-11.54164 24.38818,-13.85173c1.31104,-0.77198 3.03809,-1.55422 4.14404,-2.58255z" fill="#263955"/><path d="M95.05708,203.61861c1.1269,0.7339 2.67158,3.45414 3.58301,4.70074c0.83276,1.11769 1.70156,2.20901 2.60479,3.27103c5.21777,6.10115 11.35869,11.5475 16.42075,17.78341c1.08867,1.34181 3.0999,3.82329 3.38438,5.4317c0.72451,4.09575 0.03809,9.49816 0.47417,13.51188c1.82227,0.2124 0.25942,-6.94491 1.97358,-9.03966c0.06182,2.93119 0.38057,9.85119 -0.41353,12.28579c-0.32476,-0.14942 -0.41748,-0.19922 -0.75615,-0.31055c-0.58784,-0.42481 -3.98188,-4.18364 -4.69321,-4.9776l-9.21987,-10.30676c-2.51353,-2.80521 -5.05034,-5.58991 -7.61016,-8.3541c-1.77773,-1.94534 -3.65815,-3.90825 -5.21646,-6.0323c-1.38149,-1.88381 -1.00942,-15.03826 -0.5313,-17.96359z" fill="#374a68"/><path d="M237.13916,169.35991c0.9126,-0.74854 1.24805,-0.78517 2.37451,-0.94923c0.12158,5.32477 -0.479,11.15492 -0.64746,16.50898c-0.04834,1.52639 -0.15527,3.92583 -1.29199,4.99811c-2.58545,2.31009 -6.16992,4.07231 -9.20361,5.75837c-0.49951,-0.4043 -1.2627,-0.7002 -1.86475,-0.97413c-0.83936,-3.44535 -0.31787,-11.92983 -0.11133,-15.77216c2.99561,-3.7603 7.2832,-4.19683 10.61865,-7.55282c0.50244,-0.50684 1.0166,-0.95509 1.03271,-1.68313c-0.28711,-0.35889 -0.28418,-0.24463 -0.90674,-0.33399z" fill="#374a68"/><path d="M95.51367,202.86714c4.08062,0.16113 7.23237,-2.97806 11.1293,-4.17632c1.58013,-0.48487 2.07261,-1.36965 4.24351,-1.75197c-2.16958,1.45314 -11.33306,5.26471 -12.29575,6.51131c-0.052,0.57423 -0.01172,0.42774 0.30366,1.03419c0.60396,1.99514 14.66763,16.64668 16.46206,17.74093c1.90679,1.94241 4.03462,4.12505 5.82319,6.17439c0.67251,1.66555 2.97334,3.1934 3.4084,4.81646l-0.13022,0.18457c-0.64526,0.07764 -0.70532,-0.03076 -1.08677,0.3208c0.03999,2.46829 0.67412,2.23391 0.12671,5.55622c-1.71416,2.09475 -0.15132,9.25206 -1.97358,9.03966c-0.43608,-4.01372 0.25034,-9.41613 -0.47417,-13.51188c-0.28447,-1.60842 -2.2957,-4.08989 -3.38438,-5.4317c-5.06206,-6.23591 -11.20298,-11.68227 -16.42075,-17.78341c-0.90322,-1.06202 -1.77202,-2.15335 -2.60479,-3.27103c-0.91143,-1.2466 -2.4561,-3.96684 -3.58301,-4.70074z" fill="#4d4e57"/><path d="M180.98145,199.51847c-0.65479,-0.62257 -0.99902,-0.96095 -0.94775,-1.89407c0.08203,-1.50734 1.43848,-3.71342 2.5708,-4.66558c1.04736,-0.88038 2.74219,-1.78567 3.93018,-2.4844c3.20801,-1.88088 6.44531,-3.71049 9.71191,-5.48737c1.83691,-1.01515 15.89941,-9.04112 16.77393,-8.97374c-0.07617,0.96974 -1.85596,2.08596 -2.48291,3.29154c-1.10596,1.02833 -2.83301,1.81057 -4.14404,2.58255c-3.92725,2.31009 -23.03906,12.09096 -24.38818,13.85173c-0.74414,0.96827 -0.80127,2.60159 -1.02393,3.77934z" fill="#4d4e57"/><path d="M237.13916,169.35991c0.62256,0.08936 0.61963,-0.0249 0.90674,0.33399c-0.01611,0.72804 -0.53027,1.17628 -1.03271,1.68313c-3.33545,3.356 -7.62305,3.79253 -10.61865,7.55282c-0.20654,3.84233 -0.72803,12.32681 0.11133,15.77216c0.60205,0.27393 1.36523,0.56983 1.86475,0.97413c-1.32275,0.79395 -3.05566,1.92336 -4.47217,2.43167c0.27832,-6.48933 0.29297,-11.70131 0.05859,-18.18771c4.63184,-7.4913 8.79492,-5.92243 13.18213,-10.56018z" fill="#4d4e57"/><path d="M196.08545,171.50447c2.55762,0.99904 8.31152,-2.77591 10.80469,-3.88774c1.10449,-0.49073 0.68115,-1.20412 2.12842,-1.17042c-2.60449,4.1397 -10.44434,7.11629 -14.90771,9.73693c-0.33252,-0.9756 1.51758,-3.49223 1.97461,-4.67877z" fill="#4f76a7"/><path d="M98.89438,204.48435c2.39707,1.37111 4.74624,3.92436 7.47759,5.29694c0.08159,0.47901 0.31128,1.90139 0.48545,2.28079c1.54365,3.36625 6.63677,7.23348 8.49902,10.16321c-1.79443,-1.09425 -15.85811,-15.74579 -16.46206,-17.74093z" fill="#33353c"/><path d="M128.92456,175.70715c1.42002,1.11329 7.25889,6.48494 8.16826,7.8121c-0.82383,-0.36914 -2.51675,-2.25589 -3.46362,-3.01908c-2.27021,1.04152 -1.80483,1.65969 -4.4729,1.50588c-0.59648,-0.56983 -0.48882,-3.99468 -0.51753,-5.09479c0.12202,-0.18311 0.23438,-0.93605 0.28579,-1.20412z" fill="#263955"/><path d="M128.63877,176.91127c0.02871,1.10011 -0.07896,4.52496 0.51753,5.09479c0.15732,1.58351 -0.11411,5.29547 -0.13154,7.18661c-0.06079,-0.13184 -0.14648,-3.21244 -0.16069,-3.61381c-0.34922,-0.63136 -0.59268,-1.10304 -1.21919,-1.46926c-0.95229,-0.55665 -3.04907,-1.98342 -2.02676,-3.2974c0.51621,-0.00439 0.91714,0.30323 1.37432,0.56837c1.48052,-0.17871 0.69302,-3.44096 1.64634,-4.46929z" fill="#33353c"/><path d="M72.03691,110.19754c2.32412,1.00196 10.70156,9.73752 13.01646,11.96469c0.79014,0.76012 2.60127,2.79774 3.41689,3.30912c0.5209,-0.29136 0.52207,-0.93385 0.51094,-2.17532c-0.05742,-6.33245 -0.6126,-12.73887 -0.98555,-19.06004c0.08437,-0.08804 0.16875,-0.17593 0.25312,-0.26397c0.28169,0.046 0.34014,0.07368 0.52368,0.31509c1.36729,1.799 1.85112,15.33695 2.29644,18.60359c0.06768,7.19247 1.2605,10.6261 6.79175,15.27264c2.70542,3.30575 6.52485,6.51643 8.99385,10.05276c0.47886,0.68555 0.92695,2.23245 0.93296,3.07181l0.15176,0.19629c1.58057,2.01711 4.00488,3.79399 5.18042,5.9488c0.26821,0.49219 0.5833,2.2676 0.89487,3.06009l0.11938,0.03516c0.77959,0.87013 1.55098,1.73293 2.34302,2.5928c3.27715,3.55375 7.21465,6.65486 10.27603,10.39026l-2.29482,0.09668c1.11079,5.56354 0.58916,10.88685 -0.38833,16.39765c-0.85239,-1.06495 -1.61689,-2.34964 -2.44277,-3.31205l-0.58359,6.81893c-0.10752,1.3257 -0.19102,3.2476 -0.45234,4.48101c-0.57554,-2.33499 -1.19458,-5.22662 -2.12959,-7.37851c-1.63828,0.72218 -2.57476,0.70606 -4.31191,0.04541c-0.0939,0.93898 -0.28154,1.66555 -0.7686,2.49173c-1.26841,0.66505 -2.57402,1.23048 -3.88066,1.81496c-0.80273,-0.99025 -2.04961,-2.1929 -2.95254,-3.18314l-6.24917,-6.92879c-1.12632,-1.23781 -3.0813,-3.21683 -3.82134,-4.66412c-1.13906,-2.22659 -0.57158,-4.83404 -1.62759,-7.13241l-0.0772,-0.16406c-0.48413,-0.48194 -1.15122,-0.85401 -1.7376,-1.22316c-2.11567,-1.83254 -6.6791,-6.7076 -8.29424,-9.0294c-2.8686,0.63721 -16.26284,9.90832 -17.80576,8.92686c-0.03501,-0.02197 -0.06694,-0.04981 -0.10034,-0.07471c-0.69287,-0.30176 -0.90161,-0.51856 -1.46089,-0.99757c-1.71694,-1.80178 -3.4626,-3.79545 -5.16987,-5.6778c-2.53989,-2.80081 -5.63013,-5.85651 -7.54424,-9.10997c-0.52104,-1.0298 -1.06904,-2.58109 -1.1896,-3.71635c-0.82427,-7.78032 -1.96172,-15.89858 -2.5563,-23.67567c-0.98188,-6.54002 1.3541,-6.89744 6.78589,-9.18966c0.78208,-0.43814 1.621,-0.86544 2.41714,-1.286c0.53848,-0.46744 2.61167,-1.45842 3.32241,-1.88293c3.04351,-1.81819 7.83164,-3.85346 10.59785,-5.76071z" fill="url(#color-1)"/><path d="M114.0145,160.49311l0.11938,0.03516c0.77959,0.87013 1.55098,1.73293 2.34302,2.5928c3.27715,3.55375 7.21465,6.65486 10.27603,10.39026l-2.29482,0.09668c1.11079,5.56354 0.58916,10.88685 -0.38833,16.39765c-0.85239,-1.06495 -1.61689,-2.34964 -2.44277,-3.31205l-0.58359,6.81893c-0.10752,1.3257 -0.19102,3.2476 -0.45234,4.48101c-0.57554,-2.33499 -1.19458,-5.22662 -2.12959,-7.37851c-1.63828,0.72218 -2.57476,0.70606 -4.31191,0.04541c-0.0939,0.93898 -0.28154,1.66555 -0.7686,2.49173c-1.26841,0.66505 -2.57402,1.23048 -3.88066,1.81496c-0.80273,-0.99025 -2.04961,-2.1929 -2.95254,-3.18314l-6.24917,-6.92879c-1.12632,-1.23781 -3.0813,-3.21683 -3.82134,-4.66412c-1.13906,-2.22659 -0.57158,-4.83404 -1.62759,-7.13241l-0.0772,-0.16406c-0.25078,-3.10111 -1.47114,-7.83994 -0.08701,-10.65393c4.0853,4.44732 8.36528,8.46836 12.55107,12.77359c0.98862,1.0298 1.94839,2.08889 2.87769,3.17289c0.26279,0.30469 1.12705,1.39455 1.36172,1.59377c0.0189,-4.18364 -1.26929,-17.18868 2.53857,-19.28783z" fill="url(#color-2)"/><path d="M94.68545,162.24068c4.0853,4.44732 8.36528,8.46836 12.55107,12.77359c0.98862,1.0298 1.94839,2.08889 2.87769,3.17289c0.26279,0.30469 1.12705,1.39455 1.36172,1.59377l-0.02109,0.56104l-0.21973,0.09961c-1.27222,-0.56544 -2.86567,-2.88431 -3.67603,-3.55082c-1.88789,-1.54982 -9.79277,-10.9806 -11.31738,-11.46986c-0.35435,0.43653 -0.25708,0.19336 -0.29722,0.7588c0.77358,1.82961 13.5123,14.80389 15.68335,16.95137c-0.05684,1.77395 -0.4623,7.53085 0.51929,8.64268c0.11865,0.13623 0.24697,0.26367 0.38394,0.38233c0.27905,0.32666 0.58008,0.66651 0.8499,0.99611c-1.26841,0.66505 -2.57402,1.23048 -3.88066,1.81496c-0.80273,-0.99025 -2.04961,-2.1929 -2.95254,-3.18314l-6.24917,-6.92879c-1.12632,-1.23781 -3.0813,-3.21683 -3.82134,-4.66412c-1.13906,-2.22659 -0.57158,-4.83404 -1.62759,-7.13241l-0.0772,-0.16406c-0.25078,-3.10111 -1.47114,-7.83994 -0.08701,-10.65393z" fill="#263955"/><path d="M114.0145,160.49311l0.11938,0.03516c0.77959,0.87013 1.55098,1.73293 2.34302,2.5928c3.27715,3.55375 7.21465,6.65486 10.27603,10.39026l-2.29482,0.09668c1.11079,5.56354 0.58916,10.88685 -0.38833,16.39765c-0.85239,-1.06495 -1.61689,-2.34964 -2.44277,-3.31205l-0.58359,6.81893c-0.10752,1.3257 -0.19102,3.2476 -0.45234,4.48101c-0.57554,-2.33499 -1.19458,-5.22662 -2.12959,-7.37851c-1.63828,0.72218 -2.57476,0.70606 -4.31191,0.04541c1.24351,-0.55372 3.39331,-0.97706 4.75063,-0.97999c2.31812,-0.00293 2.04624,-2.29837 2.16299,-4.36089c0.23013,-4.06792 0.64321,-9.0294 -0.72744,-12.94791c-1.14009,-2.79495 -5.73574,-6.87166 -7.9979,-8.94884c0.01641,7.74472 0.51094,15.46161 0.2187,23.20633c-0.05713,1.51467 0.27275,4.12065 -0.01128,5.45807l-0.01421,0.06885c-0.13696,-0.11865 -0.26528,-0.2461 -0.38394,-0.38233c-0.98159,-1.11183 -0.57612,-6.86873 -0.51929,-8.64268c-2.17104,-2.14749 -14.90977,-15.12176 -15.68335,-16.95137c0.04014,-0.56544 -0.05713,-0.32227 0.29722,-0.7588c1.52461,0.48926 9.42949,9.92004 11.31738,11.46986c0.81035,0.66651 2.40381,2.98539 3.67603,3.55082l0.21973,-0.09961l0.02109,-0.56104c0.0189,-4.18364 -1.26929,-17.18868 2.53857,-19.28783z" fill="#33353c"/><path d="M121.70171,171.88972c3.34102,2.44192 2.18599,9.79406 1.4855,13.23795c-0.06094,0.11279 -0.23994,0.30176 -0.33135,0.4087l-0.32153,0.00293c-0.87539,-0.81739 -0.8064,-4.14263 -0.75527,-5.34967c0.11968,-2.82132 0.08833,-5.47858 -0.07734,-8.2999z" fill="#4d4e57"/><path d="M91.81509,134.85262c2.49551,2.13679 4.94897,4.76168 7.23223,7.15262c2.94492,3.06434 5.8585,6.15959 8.74014,9.28268l0.15176,0.19629c1.58057,2.01711 4.00488,3.79399 5.18042,5.9488c0.26821,0.49219 0.5833,2.2676 0.89487,3.06009c-3.80786,2.09915 -2.51968,15.10418 -2.53857,19.28783c-0.23467,-0.19922 -1.09893,-1.28908 -1.36172,-1.59377c-0.9293,-1.084 -1.88906,-2.14309 -2.87769,-3.17289c-4.18579,-4.30523 -8.46577,-8.32627 -12.55107,-12.77359c-0.34468,-0.4292 -1.03594,-1.33156 -1.04004,-1.86623c-0.06592,-8.54014 -1.27705,-17.03458 -1.83032,-25.52183z" fill="#374a68"/><path d="M48.91362,128.31685c4.22593,1.39909 11.86157,10.58142 14.16885,14.66223c0.18457,0.32652 0.46289,1.24821 0.49805,1.65031c0.58916,6.73177 1.74419,13.41739 2.20605,20.15722c0.10195,1.4883 0.23511,4.45318 -0.41294,5.71003c-1.71694,-1.80178 -3.4626,-3.79545 -5.16987,-5.6778c-2.53989,-2.80081 -5.63013,-5.85651 -7.54424,-9.10997c-0.52104,-1.0298 -1.06904,-2.58109 -1.1896,-3.71635c-0.82427,-7.78032 -1.96172,-15.89858 -2.5563,-23.67567z" fill="#374a68"/><path d="M55.69951,119.12719c0.47681,0.41031 0.67588,0.57027 0.72949,1.13966c-0.39932,0.71119 -1.2416,0.52867 -1.19839,1.03287c0.63281,0.30894 0.55312,0.15952 0.89766,0.66944c0.07881,0.80055 -0.37734,1.38151 -0.79907,2.06648c0.03853,1.6531 0.29326,3.41635 0.29531,4.98331c1.75972,2.82367 6.104,8.24204 8.89409,9.94743c0.80098,-0.20347 2.30552,-0.73565 3.00571,-0.23028c-1.90063,1.36701 -2.03364,1.61061 -4.38779,1.47658c0.28154,0.59356 2.31606,4.70103 2.39429,5.51623c0.79189,8.23677 1.98193,17.00982 2.0877,25.298c0.00293,0.23291 -0.50889,0.35596 -0.78398,0.46729c-0.69287,-0.30176 -0.90161,-0.51856 -1.46089,-0.99757c0.64805,-1.25685 0.51489,-4.22173 0.41294,-5.71003c-0.46187,-6.73983 -1.61689,-13.42545 -2.20605,-20.15722c-0.03516,-0.4021 -0.31348,-1.32379 -0.49805,-1.65031c-2.30728,-4.08081 -9.94292,-13.26314 -14.16885,-14.66223c-0.98188,-6.54002 1.3541,-6.89744 6.78589,-9.18966z" fill="#4d4e57"/><path d="M58.11665,117.84119l0.02622,0.24873l-0.33442,0.32608c0.14106,2.30496 3.63457,6.25481 5.01431,8.16191l4.96904,6.91239c0.68496,0.93414 1.89946,2.67864 2.75566,3.41415c0.59985,-0.31656 2.8062,-1.82287 3.21563,-1.77497c-1.01484,0.90118 -4.86108,2.87684 -6.23877,3.60663c-0.7002,-0.50538 -2.20474,0.02681 -3.00571,0.23028c-2.79009,-1.70539 -7.13437,-7.12377 -8.89409,-9.94743c-0.00205,-1.56696 -0.25679,-3.33022 -0.29531,-4.98331c0.42173,-0.68497 0.87788,-1.26593 0.79907,-2.06648c-0.34453,-0.50992 -0.26484,-0.3605 -0.89766,-0.66944c-0.04321,-0.50421 0.79907,-0.32168 1.19839,-1.03287c-0.05361,-0.56939 -0.25269,-0.72935 -0.72949,-1.13966c0.78208,-0.43814 1.621,-0.86544 2.41714,-1.286z" fill="#33353c"/><path d="M91.60825,161.41743l-0.04775,-0.15674c-0.15073,-0.50977 -0.20962,-0.60206 -0.15688,-1.1089l0.20479,-0.04688c1.51157,1.10304 2.04712,9.69592 1.42646,11.56654c-2.11567,-1.83254 -6.6791,-6.7076 -8.29424,-9.0294c1.78462,-0.74561 5.14629,-3.84526 6.56675,-1.12355z" fill="#374a68"/><path d="M91.30737,161.51851l0.30088,-0.10108c0.13843,0.42481 0.27964,0.98732 0.15938,1.41652c-0.30439,-0.26514 -0.3479,-0.84376 -0.46025,-1.31545z" fill="#263955"/><path d="M193.0459,15.42572c1.01807,-0.6066 2.96338,-1.68163 4.01074,-1.09611c5.79785,3.24316 12.29297,8.50875 17.63232,12.30743c2.00977,1.42941 10.91455,7.5975 11.3877,8.28262c0.88477,0.78443 1.64941,1.3985 1.76953,2.66004c0.6416,6.70657 0.50098,13.56037 0.79834,20.31513c0.28418,6.47644 0.6416,13.12984 0.62549,19.59852c-0.68115,-0.00791 -1.01807,-0.27202 -1.58496,-0.62667c0.02344,0.45836 0.07178,1.03961 0.07471,1.48683l-1.06641,-0.32022c-1.95264,0.17666 -3.43066,0.87306 -4.69189,2.38157c-0.55811,0.66783 -1.1792,1.67434 -0.82764,2.52337c0.81006,1.28981 1.83105,1.32248 1.72559,2.47049c-2.21191,-1.11227 -5.31738,-4.61592 -7.27295,-6.48172c-3.1875,-1.2091 -11.52686,-9.60627 -14.70703,-11.85864c-2.53857,-1.83869 -4.99512,-4.13589 -8.28369,-2.43724c-0.65186,0.33648 -2.10352,0.92799 -2.80957,0.98219c0.17432,-0.57232 0.17285,-2.19465 0.18457,-2.85457c-0.08643,-1.60593 -0.14648,-3.19135 -0.36475,-4.78541c-1.1748,0.01816 -2.7334,0.08701 -3.87158,-0.02446c-5.16504,-3.3516 -9.60059,-7.31273 -14.50781,-10.92391c-1.87061,-1.89158 -10.63623,-8.57178 -12.87158,-8.83443c-0.08057,-0.79835 -0.02637,-1.58923 0.00293,-2.39153c1.8501,-2.11409 9.25195,-6.23035 12.03076,-7.82646c7.49121,-4.26978 15.0293,-8.45239 22.61719,-12.54683z" fill="#5e89bc"/><path d="M221.58105,34.68864c1.22314,-0.05508 2.71289,0.17798 3.88477,0.52618l0.57129,0.16465c-0.0293,-0.29473 -0.03662,-0.14121 0.03955,-0.45982c0.88477,0.78443 1.64941,1.3985 1.76953,2.66004c0.6416,6.70657 0.50098,13.56037 0.79834,20.31513c0.28418,6.47644 0.6416,13.12984 0.62549,19.59852c-0.68115,-0.00791 -1.01807,-0.27202 -1.58496,-0.62667c0.02344,0.45836 0.07178,1.03961 0.07471,1.48683l-1.06641,-0.32022c-1.95264,0.17666 -3.43066,0.87306 -4.69189,2.38157c-0.55811,0.66783 -1.1792,1.67434 -0.82764,2.52337c0.81006,1.28981 1.83105,1.32248 1.72559,2.47049c-2.21191,-1.11227 -5.31738,-4.61592 -7.27295,-6.48172c-3.1875,-1.2091 -11.52686,-9.60627 -14.70703,-11.85864c-2.53857,-1.83869 -4.99512,-4.13589 -8.28369,-2.43724c-0.65186,0.33648 -2.10352,0.92799 -2.80957,0.98219c0.17432,-0.57232 0.17285,-2.19465 0.18457,-2.85457c-0.08643,-1.60593 -0.14648,-3.19135 -0.36475,-4.78541c-1.1748,0.01816 -2.7334,0.08701 -3.87158,-0.02446c0.29736,-0.36182 0.33398,-0.35435 0.72803,-0.58096c0.18604,-0.5565 0.85547,-0.40416 1.37256,-0.90221c-0.82324,-0.28653 -1.01074,-0.30572 -1.58936,-0.98292c3.94922,-0.86617 33.2168,-17.8026 35.58545,-20.60093z" fill="url(#color-3)"/><path d="M190.01074,62.75875c0.09082,-0.55372 0.04395,-0.86163 0.37207,-1.22785c3.00732,-0.49512 16.44434,3.01937 20.11963,3.32421c0.55078,0.04585 1.75342,0.2896 2.23828,0.16875c-0.33545,-0.29414 -0.94775,-0.79732 -1.20557,-1.12443c3.93018,2.53406 8.34082,7.07059 12.53467,9.61462c0.48193,0.34161 0.9375,0.50318 1.41797,0.79952c0.94629,0.58594 1.58643,1.64167 2.19727,2.55311c0.02344,0.45836 0.07178,1.03961 0.07471,1.48683l-1.06641,-0.32022c-1.95264,0.17666 -3.43066,0.87306 -4.69189,2.38157c-0.55811,0.66783 -1.1792,1.67434 -0.82764,2.52337c0.81006,1.28981 1.83105,1.32248 1.72559,2.47049c-2.21191,-1.11227 -5.31738,-4.61592 -7.27295,-6.48172c-3.1875,-1.2091 -11.52686,-9.60627 -14.70703,-11.85864c-2.53857,-1.83869 -4.99512,-4.13589 -8.28369,-2.43724c-0.65186,0.33648 -2.10352,0.92799 -2.80957,0.98219c0.17432,-0.57232 0.17285,-2.19465 0.18457,-2.85457z" fill="#080b0f"/><path d="M222.51855,75.40431c1.94238,0.87599 2.4668,1.46032 4.1748,2.62899c-1.95264,0.17666 -3.43066,0.87306 -4.69189,2.38157c-0.55811,0.66783 -1.1792,1.67434 -0.82764,2.52337c0.81006,1.28981 1.83105,1.32248 1.72559,2.47049c-2.21191,-1.11227 -5.31738,-4.61592 -7.27295,-6.48172c2.19727,-0.96827 4.77832,-2.37981 6.89209,-3.5227z" fill="#4f76a7"/><path d="M221.87109,34.88186c0.6167,0.15718 3.43945,1.55729 4.24512,1.90769c-1.95703,1.28102 -4.75488,2.66209 -6.85693,3.8709l-14.2998,8.31221c-4.38721,2.5282 -8.56494,5.38395 -13.12061,7.60702c-1.57178,0.76642 -3.28711,1.21085 -5.03174,0.85621c-0.10107,-0.02109 -0.20361,-0.04365 -0.30469,-0.06797c0.18604,-0.5565 0.85547,-0.40416 1.37256,-0.90221c-0.82324,-0.28653 -1.01074,-0.30572 -1.58936,-0.98292c3.94922,-0.86617 33.2168,-17.8026 35.58545,-20.60093z" fill="#666b76"/><path d="M211.53516,63.89944c-0.4541,-0.05552 -1.45898,-1.27062 -1.62451,-1.71857c1.62598,0.01113 8.04639,1.70861 9.68408,2.39314c0.94775,1.91267 1.89844,3.82505 2.85938,5.7298c0.31348,0.62432 1.46777,2.68377 1.61572,3.21024c-4.19385,-2.54402 -8.60449,-7.08055 -12.53467,-9.61462z" fill="#33353c"/><path d="M193.0459,15.42572l0.95361,0.5357c-7.39453,4.03935 -14.75391,8.1414 -22.07812,12.30571c-2.72314,1.56535 -8.86816,5.01774 -10.96143,6.94535c2.2998,3.1493 8.37012,7.17548 11.5957,9.70236c4.51025,3.53295 9.24023,6.99574 13.72998,10.56795c0.57861,0.67721 0.76611,0.69639 1.58936,0.98292c-0.51709,0.49805 -1.18652,0.34571 -1.37256,0.90221c-0.39404,0.22661 -0.43066,0.21914 -0.72803,0.58096c-5.16504,-3.3516 -9.60059,-7.31273 -14.50781,-10.92391c-1.87061,-1.89158 -10.63623,-8.57178 -12.87158,-8.83443c-0.08057,-0.79835 -0.02637,-1.58923 0.00293,-2.39153c1.8501,-2.11409 9.25195,-6.23035 12.03076,-7.82646c7.49121,-4.26978 15.0293,-8.45239 22.61719,-12.54683z" fill="#4d4e57"/><path d="M193.0459,15.42572c1.01807,-0.6066 2.96338,-1.68163 4.01074,-1.09611c5.79785,3.24316 12.29297,8.50875 17.63232,12.30743c2.00977,1.42941 10.91455,7.5975 11.3877,8.28262c-0.07617,0.31861 -0.06885,0.16509 -0.03955,0.45982l-0.57129,-0.16465c-1.17187,-0.3482 -2.66162,-0.58126 -3.88477,-0.52618l-10.60693,-7.82529c-3.60645,-2.70999 -12.90088,-10.49046 -16.97461,-10.90194z" fill="#33353c"/><path d="M54.62402,72.12111c0.01201,-0.50977 -0.04922,-0.96798 0.2644,-1.34899l-0.11396,0.60704c0.24111,-0.5713 0.38042,-0.88771 0.51182,-1.50353c0.75732,-3.55112 -2.64316,-18.4073 -0.76421,-20.54233c1.06025,-0.33384 6.86689,6.05925 7.92759,7.15013c2.08462,2.13811 4.19795,4.2481 6.33926,6.32966c4.74624,4.54371 9.86587,9.04991 14.60698,13.63009c3.57012,3.44887 2.75361,4.99049 3.33398,9.46872c0.62988,4.8607 1.2334,9.25221 1.22798,14.21369l0.2458,0.13858c1.56592,-1.0837 -1.14404,-11.69018 0.6394,-13.60387c0.40122,-0.02432 0.48853,-0.01333 0.87642,0.34556c2.59248,2.39871 5.12842,4.9524 7.66714,7.39989c5.31094,5.21256 10.69907,10.34587 16.16265,15.39833c-0.44678,3.57221 -0.1437,10.90955 -0.14312,14.88929l-0.02578,27.97006c-2.98198,-2.98978 -5.84165,-6.00007 -8.9313,-8.88394c-2.32178,-0.81769 -4.29492,-4.21543 -6.58843,-5.61613c-5.53125,-4.64654 -6.72407,-8.08017 -6.79175,-15.27264c-0.44531,-3.26664 -0.92915,-16.80459 -2.29644,-18.60359c-0.18354,-0.24141 -0.24199,-0.26909 -0.52368,-0.31509c-0.08437,0.08804 -0.16875,0.17593 -0.25312,0.26397c0.37295,6.32117 0.92812,12.72759 0.98555,19.06004c0.01113,1.24147 0.00996,1.88396 -0.51094,2.17532c-0.81563,-0.51138 -2.62676,-2.549 -3.41689,-3.30912c-2.31489,-2.22717 -10.69233,-10.96273 -13.01646,-11.96469c-2.8916,-2.97879 -5.87271,-5.87966 -8.80898,-8.81553c-1.82241,-1.82243 -4.76763,-4.26846 -5.97876,-6.51878c-1.46646,-2.72464 -2.47764,-18.73425 -2.62515,-22.74211z" fill="#374a68"/><path d="M91.0689,122.89071c1.12427,1.28234 0.61216,2.14002 1.43701,3.46484c0.70972,1.14025 2.64624,1.9008 3.47622,2.81839c1.0771,1.19064 1.66655,3.24672 2.78086,4.46079c0.14692,0.15996 0.59663,0.73316 0.71016,0.89415c-1.94707,-0.934 -3.7522,-2.98627 -4.78433,-3.10931c-0.2272,0.27862 -0.26235,0.5127 -0.24668,0.88023c0.1103,2.57947 8.4895,8.22051 10.00693,11.47968c-2.32178,-0.81769 -4.29492,-4.21543 -6.58843,-5.61613c-5.53125,-4.64654 -6.72407,-8.08017 -6.79175,-15.27264z" fill="#263955"/><path d="M198.55811,123.30409c0.27393,0.23614 0.51709,0.444 0.80713,0.66431l0.14795,-0.1648c0.94922,1.72546 -0.89795,15.02361 -1.10303,17.70724c-0.28857,3.79033 -0.67529,8.45723 -0.99609,12.27759c-0.50537,0.68409 -1.5498,15.93915 -1.32861,17.71603c-0.45703,1.18654 -2.30713,3.70317 -1.97461,4.67877c-1.27588,1.06202 -3.98145,2.64114 -5.47852,3.4644c-5.11963,2.81693 -10.45752,5.48883 -15.63428,8.20029c-3.03662,1.58937 -10.00781,6.20662 -12.89062,7.16024l-0.88037,0.54053c-1.05322,0.75733 -2.34814,1.61281 -3.5083,2.19583c-0.88623,-2.25882 1.11914,-35.04827 1.35059,-40.47265c0.08496,-2.01858 0.78955,-8.1915 0.5332,-10.18078c2.56494,-1.46222 13.86914,-7.22323 15.14355,-8.50747c0.15234,-0.54141 0.13916,-0.26426 -0.03516,-0.86031c1.83691,-1.29787 4.43701,-2.71278 6.43945,-3.82212c2.59863,-1.43835 5.37451,-3.00267 8.02295,-4.32691c1.32129,-0.86822 3.42627,-1.95178 4.86475,-2.74383c2.10059,-1.15665 4.38867,-2.46917 6.52002,-3.52636z" fill="#4f76a7"/><path d="M198.55811,123.30409c0.27393,0.23614 0.51709,0.444 0.80713,0.66431l0.14795,-0.1648c0.94922,1.72546 -0.89795,15.02361 -1.10303,17.70724c-0.28857,3.79033 -0.67529,8.45723 -0.99609,12.27759c-0.50537,0.68409 -1.5498,15.93915 -1.32861,17.71603c-0.45703,1.18654 -2.30713,3.70317 -1.97461,4.67877c-1.27588,1.06202 -3.98145,2.64114 -5.47852,3.4644c-5.11963,2.81693 -10.45752,5.48883 -15.63428,8.20029c-3.03662,1.58937 -10.00781,6.20662 -12.89062,7.16024c2.02002,-3.04691 21.73096,-12.78531 26.07715,-15.58905c2.17383,-1.40334 5.51514,-3.00736 7.56445,-5.13287c0.90674,-5.59137 1.06787,-12.0104 1.20996,-17.67062l0.05713,-0.20069c0.27539,-0.88331 0.63281,-4.60552 0.72803,-5.59577c0.54053,-5.94382 0.93164,-11.90009 1.17334,-17.86325c0.03076,-0.05962 0.30762,-1.02731 0.34277,-1.14904c0.0791,-0.61715 0.21094,-2.14866 0.03955,-2.69095c-0.271,-0.29942 -0.39551,-0.45879 -0.81738,-0.48384c-2.45801,-0.14575 -21.98584,11.48158 -25.67139,13.53429c-2.4917,1.38766 -5.12256,2.57977 -7.55127,4.06968c-1.04736,0.64263 -2.05225,1.35456 -2.92676,2.22322c-0.95215,0.94923 -1.31982,3.02347 -1.49854,4.31548c-0.55957,4.02104 -0.39551,8.01133 -0.52588,12.04848c-0.28564,8.84923 -0.32812,17.72482 -1.01367,26.555l0.03809,0.64747c-0.09521,2.19143 -0.41748,2.99125 1.89404,3.52299c-1.05322,0.75733 -2.34814,1.61281 -3.5083,2.19583c-0.88623,-2.25882 1.11914,-35.04827 1.35059,-40.47265c0.08496,-2.01858 0.78955,-8.1915 0.5332,-10.18078c2.56494,-1.46222 13.86914,-7.22323 15.14355,-8.50747c0.15234,-0.54141 0.13916,-0.26426 -0.03516,-0.86031c1.83691,-1.29787 4.43701,-2.71278 6.43945,-3.82212c2.59863,-1.43835 5.37451,-3.00267 8.02295,-4.32691c1.32129,-0.86822 3.42627,-1.95178 4.86475,-2.74383c2.10059,-1.15665 4.38867,-2.46917 6.52002,-3.52636z" fill="url(#color-4)"/><path d="M198.55811,123.30409c0.27393,0.23614 0.51709,0.444 0.80713,0.66431c-3.16846,1.97903 -6.62549,4.05972 -10.08252,5.54889c-0.8291,0.35772 -1.28174,0.50875 -2.10937,0.05698c1.32129,-0.86822 3.42627,-1.95178 4.86475,-2.74383c2.10059,-1.15665 4.38867,-2.46917 6.52002,-3.52636z" fill="#33353c"/><path d="M188.32764,136.30766c1.35352,-1.63142 3.19043,-4.9546 4.99072,-5.93576c1.07373,-0.58565 1.04883,1.38649 2.25146,1.93523c0.8584,-0.0709 0.76904,-0.5502 1.50439,-0.80963l0.18604,0.30938c-0.03516,0.12173 -0.31201,1.08942 -0.34277,1.14904c-1.45312,1.08532 -0.85107,1.07008 -0.59473,2.41028c0.08936,0.46553 -1.15869,0.79923 -1.62305,1.1965l-0.01758,0.32051c0.31641,0.20083 0.75146,0.03384 1.22607,-0.03545l0.13916,0.18062c-0.04687,1.32248 -0.67529,2.52645 -1.46924,3.55932c-0.57275,0.74737 -2.15625,1.58 -2.98682,0.88375c-0.20654,-1.04723 0.62256,-2.94364 1.00342,-4.02456c-0.63135,-0.79 -0.9668,-1.02906 -1.78711,-1.53913c-0.25195,0.46876 -0.38818,0.88961 -0.85254,1.11666c-0.57861,0.01611 -1.09863,-0.39888 -1.62744,-0.71676z" fill="#5e89bc"/><path d="M189.57568,158.72941c0.85986,-1.16603 3.55957,-3.7061 5.10938,-3.15971c0.34863,0.41602 0.2417,0.25049 0.33105,0.84522l-0.05713,0.20069c-2.28955,0.77638 -1.45459,1.86184 -5.3833,2.11379z" fill="#5e89bc"/><path d="M157.29492,191.37824c0.65918,-0.50098 1.2334,-1.02247 2.02588,-1.2422l0.32959,0.04688c-0.09668,0.81446 -1.59668,1.67873 -2.31738,1.8428z" fill="#5e89bc"/><path d="M174.42334,153.16441c1.15723,-0.02344 1.25244,0.56544 2.23389,0.65333c0.13623,0.01172 0.43506,-0.39405 0.97119,-0.38672c0.64453,3.30326 -1.69775,2.86673 -2.10352,4.7857c-0.11279,0.53174 0.11719,0.67384 -0.56543,1.29201c-0.60791,0.11133 -1.48535,-0.10254 -2.12842,-0.2124c-2.20898,3.30326 -3.854,3.49516 -7.4751,5.3526c-0.48047,0.25928 -0.47607,0.2666 -1.00342,0.38233c-0.35303,-0.37793 0.29297,-0.65626 0.10986,-1.49416c-0.43066,-0.09961 -0.73096,0.18164 -1.33594,0.34424l-0.08496,-0.21826c0.48779,-1.64357 7.43555,-5.732 9.04248,-7.1954c0.65039,-0.59473 0.9082,-1.23781 1.48682,-1.61867c0.54199,-0.01465 1.05615,0.10693 1.24951,-0.44239c-0.38672,-0.48926 -0.38965,-0.62257 -0.39697,-1.2422z" fill="#5e89bc"/><path d="M170.88135,150.46613l0.45996,0.11572c0.104,0.22266 0.1875,0.44678 0.26221,0.68116l0.19922,0.03516l0.46582,-0.57862l0.2124,0.02344c0.2959,0.89503 0.01904,2.37161 -1.08398,2.56497c-0.95654,0.16699 -1.52197,-0.44239 -2.23682,-0.98585l-0.99756,0.97267c-0.65771,0.51856 -2.09473,1.62307 -2.62207,0.4043c0.23584,-1.72268 3.89795,-2.87113 5.34082,-3.23295z" fill="#5e89bc"/><path d="M181.2832,169.61919c0.73389,0.00586 1.78564,-0.07178 1.89844,0.78517c-0.51562,1.1338 -2.44482,2.13137 -3.5083,2.72904c-0.3999,0.17578 -0.39111,0.16699 -0.82764,0.22266c-0.55371,-0.34717 -0.56982,-0.60792 -0.91699,-1.23048c1.11182,-1.23927 1.89844,-1.6509 3.35449,-2.50638z" fill="#5e89bc"/><path d="M171.9873,179.35612l0.07471,0.12451c-0.26221,2.36429 -5.35693,4.59966 -7.41064,5.04938l-0.06738,-0.2168c0.8042,-1.74904 3.42188,-2.53128 4.99658,-3.50248c0.79541,-0.48926 1.58496,-1.02247 2.40674,-1.45461z" fill="#5e89bc"/><path d="M166.37988,147.22732c0.10547,0.13477 0.09375,0.23145 0.13623,0.4292c-0.39111,0.95362 -3.52881,2.57376 -4.54834,3.14652c-0.73389,-1.81936 3.0791,-3.01615 4.41211,-3.57573z" fill="#6b99cc"/><path d="M182.0625,173.02792c0.19922,0.22705 -0.15967,1.25099 -0.24316,1.55422c-1.09717,1.0298 -1.94385,1.34914 -3.35449,1.61867l-0.13037,-0.26367c0.45703,-0.82765 2.84033,-2.30862 3.72803,-2.90921z" fill="#6b99cc"/><path d="M227.68506,76.86668c0.56689,0.35464 0.90381,0.61876 1.58496,0.62667c1.15283,0.11646 10.48535,7.50258 12.01904,8.67183c5.5459,4.20107 11.06982,8.43086 16.57178,12.68907c2.6543,2.06868 5.3335,4.1041 8.0376,6.10554c1.38721,1.0298 3.58447,2.55032 4.85596,3.62421c0.39551,0.40196 0.80127,0.8026 1.17773,1.22184c0.42773,2.29807 0.14209,5.19337 -0.10986,7.53173l-0.59766,9.68757c-0.12891,1.97903 -0.25049,4.68814 -0.60059,6.61648c-1.33008,1.23004 -4.66113,3.17684 -6.30615,4.16079c-4.86914,2.87157 -9.76611,5.69348 -14.69238,8.46558c-1.47803,0.8275 -5.55762,2.91932 -6.71484,3.72207c-1.22754,0.49219 -2.08447,0.8672 -3.36475,0.24756c-1.96143,-1.38722 -3.97559,-3.43363 -5.99854,-4.94581c-1.88379,-4.32705 -0.03662,-12.4897 0.10254,-17.219l0.00293,-0.14575l0.06299,-0.12876c0.21094,-1.35793 0.63281,-5.84245 1.09863,-6.73235c-1.17627,-1.21334 2.35693,-14.90203 0.15527,-17.10006l-0.22852,-0.43272c0.12305,-0.90074 0.85107,-0.56221 1.47363,-1.86125c0.54785,-0.37749 1.42383,-0.89562 1.66846,-1.47892c-1.20557,-3.54291 -1.64355,-3.3872 -4.41504,-5.74929c-3.52002,-2.99916 -7.48242,-5.60368 -10.56885,-9.03497c0.10547,-1.14801 -0.91553,-1.18068 -1.72559,-2.47049c-0.35156,-0.84903 0.26953,-1.85554 0.82764,-2.52337c1.26123,-1.50851 2.73926,-2.20491 4.69189,-2.38157l1.06641,0.32022c-0.00293,-0.44722 -0.05127,-1.02848 -0.07471,-1.48683z" fill="#6b99cc"/><path d="M270.75439,108.584c0.39551,0.40196 0.80127,0.8026 1.17773,1.22184c0.42773,2.29807 0.14209,5.19337 -0.10986,7.53173l-0.59766,9.68757c-0.12891,1.97903 -0.25049,4.68814 -0.60059,6.61648c-1.33008,1.23004 -4.66113,3.17684 -6.30615,4.16079c-4.86914,2.87157 -9.76611,5.69348 -14.69238,8.46558c-1.47803,0.8275 -5.55762,2.91932 -6.71484,3.72207c-1.22754,0.49219 -2.08447,0.8672 -3.36475,0.24756c-1.96143,-1.38722 -3.97559,-3.43363 -5.99854,-4.94581c-1.88379,-4.32705 -0.03662,-12.4897 0.10254,-17.219l0.00293,-0.14575l0.06299,-0.12876c0.21094,-1.35793 0.63281,-5.84245 1.09863,-6.73235c1.16455,0.52193 1.34473,2.26848 2.63086,3.48871c0.93018,0.88229 1.25684,1.1442 2.3335,1.93699c0.75732,-0.31407 1.81787,-0.98072 2.57666,-1.40334l5.05811,-2.79041l16.76953,-9.42726c0.98291,-0.55269 6.12305,-3.16322 6.62549,-3.60063l-0.01611,-0.17769l-0.5625,-0.24771z" fill="#374a68"/><path d="M270.75439,108.584c0.39551,0.40196 0.80127,0.8026 1.17773,1.22184c0.42773,2.29807 0.14209,5.19337 -0.10986,7.53173c-0.48047,-0.38218 -1.3667,-0.69185 -1.96143,-0.9378c-2.92529,1.22492 -24.26221,12.21518 -25.72559,15.11224c-1.01514,2.00789 -1.52197,15.62597 -1.22461,18.47805c-1.22754,0.49219 -2.08447,0.8672 -3.36475,0.24756c-1.96143,-1.38722 -3.97559,-3.43363 -5.99854,-4.94581c-1.88379,-4.32705 -0.03662,-12.4897 0.10254,-17.219l0.00293,-0.14575l0.06299,-0.12876c0.21094,-1.35793 0.63281,-5.84245 1.09863,-6.73235c1.16455,0.52193 1.34473,2.26848 2.63086,3.48871c0.93018,0.88229 1.25684,1.1442 2.3335,1.93699c0.75732,-0.31407 1.81787,-0.98072 2.57666,-1.40334l5.05811,-2.79041l16.76953,-9.42726c0.98291,-0.55269 6.12305,-3.16322 6.62549,-3.60063l-0.01611,-0.17769l-0.5625,-0.24771z" fill="url(#color-5)"/><path d="M234.81445,121.06593c1.16455,0.52193 1.34473,2.26848 2.63086,3.48871c0.93018,0.88229 1.25684,1.1442 2.3335,1.93699c1.05469,0.80069 1.15576,1.28556 1.64648,2.50286c-2.40967,4.77559 -1.32129,15.67636 -1.87939,21.24312c-1.96143,-1.38722 -3.97559,-3.43363 -5.99854,-4.94581c-1.88379,-4.32705 -0.03662,-12.4897 0.10254,-17.219l0.00293,-0.14575l0.06299,-0.12876c0.21094,-1.35793 0.63281,-5.84245 1.09863,-6.73235z" fill="#080b0f"/><path d="M270.08496,110.86757c0.55518,0.03296 0.35889,-0.08159 0.68701,0.20977c-0.09229,0.58375 -0.82178,1.21115 -1.33447,1.47819c-2.5459,1.32585 -5.04346,2.59705 -7.52197,4.05664l-11.79199,7.01346c-2.17822,1.28146 -6.09668,3.63403 -8.39209,4.42329c-0.19775,0.03677 -0.27979,0.02168 -0.4834,0.01904l0.00879,-0.23145c1.83105,-2.21472 24.89648,-14.67996 28.82813,-16.96895z" fill="#99a2ad"/><path d="M227.68506,76.86668c0.56689,0.35464 0.90381,0.61876 1.58496,0.62667c1.15283,0.11646 10.48535,7.50258 12.01904,8.67183c5.5459,4.20107 11.06982,8.43086 16.57178,12.68907c2.6543,2.06868 5.3335,4.1041 8.0376,6.10554c1.38721,1.0298 3.58447,2.55032 4.85596,3.62421l-0.52441,0.2606l0.5625,0.24771l0.01611,0.17769c-0.50244,0.43741 -5.64258,3.04794 -6.62549,3.60063l-16.76953,9.42726l-5.05811,2.79041c-0.75879,0.42261 -1.81934,1.08927 -2.57666,1.40334c-1.07666,-0.79278 -1.40332,-1.0547 -2.3335,-1.93699c-1.28613,-1.22023 -1.46631,-2.96678 -2.63086,-3.48871c-1.17627,-1.21334 2.35693,-14.90203 0.15527,-17.10006l-0.22852,-0.43272c0.12305,-0.90074 0.85107,-0.56221 1.47363,-1.86125c0.54785,-0.37749 1.42383,-0.89562 1.66846,-1.47892c-0.02344,1.47936 -0.14062,3.02845 -0.27686,4.50606c-0.479,5.20626 -0.79687,10.5366 -1.5542,15.708c0.66064,0.65816 1.74463,1.80691 2.41846,2.37571c0.29443,-0.01611 0.58887,-0.03809 0.88184,-0.06621c3.99463,-0.39156 8.25293,-3.81728 11.68066,-5.8653c4.06641,-2.42889 11.52539,-5.05216 14.46387,-8.6629c-2.30859,-2.44529 -8.34814,-7.01346 -11.15186,-9.19215c-7.74609,-6.04343 -15.6167,-11.92587 -23.60742,-17.64352c-1.1001,-0.90397 -2.33203,-1.74714 -2.97803,-2.99916c-0.00293,-0.44722 -0.05127,-1.02848 -0.07471,-1.48683z" fill="#33353c"/><path d="M237.8833,100.19298c-0.02344,1.47936 -0.14062,3.02845 -0.27686,4.50606c-0.479,5.20626 -0.79687,10.5366 -1.5542,15.708c0.66064,0.65816 1.74463,1.80691 2.41846,2.37571c0.21533,0.82369 1.04297,1.66877 1.90576,1.57546c1.99365,-0.21563 4.36816,-1.65808 6.02783,-2.65828c6.25195,-3.76923 12.6416,-7.23011 19.11182,-10.60222c1.54102,-0.80289 3.16553,-1.44391 4.71387,-2.2531l0.5625,0.24771l0.01611,0.17769c-0.50244,0.43741 -5.64258,3.04794 -6.62549,3.60063l-16.76953,9.42726l-5.05811,2.79041c-0.75879,0.42261 -1.81934,1.08927 -2.57666,1.40334c-1.07666,-0.79278 -1.40332,-1.0547 -2.3335,-1.93699c-1.28613,-1.22023 -1.46631,-2.96678 -2.63086,-3.48871c-1.17627,-1.21334 2.35693,-14.90203 0.15527,-17.10006l-0.22852,-0.43272c0.12305,-0.90074 0.85107,-0.56221 1.47363,-1.86125c0.54785,-0.37749 1.42383,-0.89562 1.66846,-1.47892z" fill="#4d4e57"/><path d="M221.17383,82.93823c-0.35156,-0.84903 0.26953,-1.85554 0.82764,-2.52337c1.26123,-1.50851 2.73926,-2.20491 4.69189,-2.38157l1.06641,0.32022c0.646,1.25202 1.87793,2.09519 2.97803,2.99916c-1.7373,-0.32051 -2.31006,-0.87057 -3.68115,-1.94123c-1.1748,0.63238 -1.81494,1.27882 -2.896,2.03c-0.92725,0.64381 -1.95557,1.02965 -2.98682,1.4968z" fill="#5e89bc"/><path d="M115.28276,113.57536c3.06387,2.15671 6.56455,5.96726 9.32109,8.57119l14.33628,13.42076c4.11519,3.91587 6.59561,6.66175 11.01445,10.32126c0.48486,0.94762 1.32129,2.50184 1.34033,3.55507c0.05713,3.03666 -0.07471,6.28865 -0.21387,9.31945l-0.46875,12.55386c-0.2417,7.2452 -0.38965,14.86102 -0.87891,22.11647c-0.03076,0.46436 -0.9668,1.08253 -1.3374,1.34035l-11.30317,-11.25453c-0.90938,-1.32716 -6.74824,-6.69881 -8.16826,-7.8121c-0.70781,-0.73683 -1.45107,-1.46926 -2.17163,-2.19583c-3.06138,-3.7354 -6.99888,-6.83651 -10.27603,-10.39026c-0.79204,-0.85987 -1.56343,-1.72268 -2.34302,-2.5928c-0.02959,-0.19629 0.13901,-2.93412 0.15571,-3.28129c0.09785,-2.03323 0.14092,-4.06792 0.12876,-6.10261l-0.01655,-22.20392c-0.0104,-4.42007 -0.7188,-11.3641 0.88096,-15.36507z" fill="#374a68"/><path d="M52.23325,43.09812c2.13926,-2.31697 31.42852,-17.26734 34.2019,-17.59752c0.8061,0.29136 1.88979,1.20822 2.56758,1.78347c6.05552,5.13932 11.77705,10.64031 17.66001,15.96948c4.09966,3.71386 8.34067,7.30907 12.33281,11.13763c0.62681,0.60103 2.50093,2.36106 2.92764,3.01307c-0.38789,0.75001 -0.79907,1.58571 -1.22212,2.30789l-17.98916,9.35387c-4.02056,2.09885 -8.81338,4.81309 -12.94175,6.46707c-2.75405,-0.87159 -17.22305,-16.22963 -20.1334,-19.33236c-4.25654,-4.53829 -8.96265,-9.7945 -14.15347,-13.50836c-0.50728,-0.36299 -2.27798,0.62125 -3.15688,0.519z" fill="#797c85"/><path d="M76.18315,31.75716c2.47002,-1.46091 7.78462,-4.65884 10.70317,-3.7187c3.86235,1.24425 7.68545,5.77375 10.68516,8.49165c0.48486,0.43931 1.58789,1.5756 1.91016,2.09094c6.39185,5.43229 12.37324,11.69179 18.63896,17.2483c0.60059,0.37823 0.52646,0.21094 0.79351,0.7607c-0.01919,0.46846 -0.19922,1.03492 -0.57129,1.2671c-1.50205,0.93707 -3.60996,2.01125 -5.15977,2.85238c-4.68076,2.57376 -9.40049,5.07604 -14.15757,7.50565c-2.19185,1.13263 -4.37065,2.31389 -6.59502,3.37885c-1.23105,0.58931 -1.96392,0.84728 -3.31626,0.51754c-1.41445,-1.12882 -2.98799,-2.8118 -4.30371,-4.11567l-6.65449,-6.5053c-6.89751,-6.65208 -13.87383,-13.03946 -20.68447,-19.81591c1.48286,-1.24997 3.76523,-2.41087 5.47793,-3.35673c4.2665,-2.35652 8.97891,-4.30376 13.23369,-6.60081z" fill="#6b99cc"/><path d="M118.12061,55.86936c0.60059,0.37823 0.52646,0.21094 0.79351,0.7607c-0.01919,0.46846 -0.19922,1.03492 -0.57129,1.2671c-1.50205,0.93707 -3.60996,2.01125 -5.15977,2.85238c-4.68076,2.57376 -9.40049,5.07604 -14.15757,7.50565c-2.19185,1.13263 -4.37065,2.31389 -6.59502,3.37885c-1.23105,0.58931 -1.96392,0.84728 -3.31626,0.51754c0.65215,-0.43975 1.60459,-0.64644 2.32295,-1.01866c1.26035,-0.65304 1.81436,-1.83723 2.76079,-2.80096c0.87217,-0.88829 1.6812,-0.79586 2.8147,-0.76393c1.29536,-1.06466 3.00967,-2.54637 4.63242,-2.97997c2.22568,-0.59459 3.99712,-0.81988 6.12451,-1.83049c0.79775,-3.65439 1.70889,-0.9526 3.32153,-2.52366c0.23862,-0.23233 -0.47183,-3.04515 -0.2291,-3.99746l0.3123,-0.10811c0.56543,0.21739 1.2375,1.30519 1.73276,1.79343c1.81655,1.79065 4.00591,-0.60338 5.21353,-2.05242z" fill="#5e89bc"/><path d="M76.18315,31.75716c2.47002,-1.46091 7.78462,-4.65884 10.70317,-3.7187c3.86235,1.24425 7.68545,5.77375 10.68516,8.49165c0.48486,0.43931 1.58789,1.5756 1.91016,2.09094c-3.37983,-0.71265 -8.44761,-8.419 -13.53911,-10.42922c-1.12617,0.18076 -2.87856,0.74649 -3.89019,1.28014c-2.0313,1.07155 -2.31357,2.12683 -2.93657,4.09692c-1.40127,-0.50069 -1.82944,-0.81344 -2.93262,-1.81174z" fill="#5e89bc"/><path d="M158.39502,38.19054c2.23535,0.26265 11.00098,6.94286 12.87158,8.83443c4.90723,3.61118 9.34277,7.57231 14.50781,10.92391c1.13818,0.11148 2.69678,0.04263 3.87158,0.02446c0.21826,1.59406 0.27832,3.17948 0.36475,4.78541c-0.01172,0.65992 -0.01025,2.28225 -0.18457,2.85457c-0.99609,-0.62989 -1.29785,-2.06897 -2.06689,-3.09247c-0.04248,0.61055 -0.08203,2.59398 -0.64014,2.94144c-1.35352,0.84288 -2.83594,1.58952 -4.24365,2.34715c-2.69824,1.44611 -5.38037,2.92108 -8.04785,4.42432l-14.76416,8.37959c-2.02002,1.13966 -4.20117,2.4198 -6.27246,3.46264c-0.61523,0.31011 -2.55029,0.17959 -3.2959,0.13814c-1.21289,-0.74708 -6.3936,-5.11588 -7.65205,-6.21204c-5.73076,-4.99195 -13.90195,-11.112 -18.87275,-16.71216c0.07881,-0.99801 0.46948,-2.1907 0.68379,-3.22445c1.90313,-2.16668 24.77754,-14.27243 28.85566,-16.55073c1.85303,-0.79776 3.95068,-1.4735 4.88525,-3.32421z" fill="#5e89bc"/><path d="M124.6541,58.06548c1.90313,-2.16668 24.77754,-14.27243 28.85566,-16.55073c0.00879,0.46099 -0.00146,1.12545 0.03223,1.56711c-5.51367,3.32465 -11.09604,6.18713 -16.68574,9.32867c-2.9688,1.66848 -8.27959,4.49244 -10.63667,6.73045c1.37109,2.02971 4.3916,4.81412 6.20552,6.52581c3.9356,3.68398 7.94297,7.29047 12.01978,10.81741c1.73979,1.50617 3.74165,3.08031 5.40571,4.58897c2.81982,2.61712 6.62109,-0.44473 9.0791,-2.20183c0.17578,-0.06943 2.00391,-1.1401 2.2998,-1.30812l6.01465,-3.41693c5.13574,-2.9306 10.34473,-5.75837 15.43213,-8.7669c2.44482,-1.44582 3.38965,-1.6468 1.95117,-4.26231l1.23193,-0.53233c0.45703,0.42642 1.64795,1.46691 1.8999,1.93611c-0.04248,0.61055 -0.08203,2.59398 -0.64014,2.94144c-1.35352,0.84288 -2.83594,1.58952 -4.24365,2.34715c-2.69824,1.44611 -5.38037,2.92108 -8.04785,4.42432l-14.76416,8.37959c-2.02002,1.13966 -4.20117,2.4198 -6.27246,3.46264c-0.61523,0.31011 -2.55029,0.17959 -3.2959,0.13814c-1.21289,-0.74708 -6.3936,-5.11588 -7.65205,-6.21204c-5.73076,-4.99195 -13.90195,-11.112 -18.87275,-16.71216c0.07881,-0.99801 0.46948,-2.1907 0.68379,-3.22445z" fill="#797c85"/><path d="M158.39502,38.19054c2.23535,0.26265 11.00098,6.94286 12.87158,8.83443c4.90723,3.61118 9.34277,7.57231 14.50781,10.92391c1.13818,0.11148 2.69678,0.04263 3.87158,0.02446c0.21826,1.59406 0.27832,3.17948 0.36475,4.78541c-0.01172,0.65992 -0.01025,2.28225 -0.18457,2.85457c-0.99609,-0.62989 -1.29785,-2.06897 -2.06689,-3.09247c-0.25195,-0.46919 -1.44287,-1.50969 -1.8999,-1.93611l-1.23193,0.53233c-5.12402,-3.34486 -8.99707,-7.35917 -13.50586,-11.46312c-1.65088,-1.50265 -3.2915,-2.78734 -5.03027,-4.18848c-1.85303,-1.49313 -3.32373,-3.1222 -5.49023,-4.20928c-2.50488,-1.25656 -4.2041,0.84083 -6.82031,1.7445l-0.23877,0.08115c-0.03369,-0.44166 -0.02344,-1.10612 -0.03223,-1.56711c1.85303,-0.79776 3.95068,-1.4735 4.88525,-3.32421z" fill="#33353c"/><path d="M171.2666,47.02497c4.90723,3.61118 9.34277,7.57231 14.50781,10.92391c1.13818,0.11148 2.69678,0.04263 3.87158,0.02446c0.21826,1.59406 0.27832,3.17948 0.36475,4.78541c-0.01172,0.65992 -0.01025,2.28225 -0.18457,2.85457c-0.99609,-0.62989 -1.29785,-2.06897 -2.06689,-3.09247c-0.25195,-0.46919 -1.44287,-1.50969 -1.8999,-1.93611c-2.51367,-2.41761 -14.8418,-10.47009 -14.59277,-13.55978z" fill="url(#color-6)"/><path d="M149.85059,81.07317c0.17578,-0.7629 0.17871,-3.59477 1.62598,-2.98744c0.22852,0.52296 0.12891,1.27751 0.10693,1.88088c0.54932,-0.27246 0.90527,-0.4919 1.51318,-0.60059c0.51855,0.15542 0.33545,0.02827 0.66064,0.5754c1.18945,0.47711 2.66455,-1.61252 5.17236,-1.07008c-2.45801,1.7571 -6.25928,4.81895 -9.0791,2.20183z" fill="#6b99cc"/><path d="M143.02939,68.44505c0.13726,0.02593 0.18486,0.08965 0.31655,0.18325l-0.10239,0.2732c-0.88198,0.74825 -1.87852,1.03741 -2.97261,1.34518l-0.31143,-0.08906l-0.00879,-0.2146c0.73374,-0.94923 1.9563,-1.28322 3.07866,-1.49797z" fill="#6b99cc"/><path d="M234.96973,103.96588c2.20166,2.19802 -1.33154,15.88671 -0.15527,17.10006c-0.46582,0.8899 -0.8877,5.37443 -1.09863,6.73235l-0.06299,0.12876l-0.00293,0.14575c-0.13916,4.7293 -1.98633,12.89195 -0.10254,17.219c-0.1084,2.2739 -0.0249,5.29738 -1.89258,6.82523c-2.02734,1.65822 -3.88916,1.87649 -4.93359,4.7315l-0.16113,-0.0293c-0.33838,-0.06445 -0.98437,-0.27539 -1.26562,-0.15235c-1.41211,0.61817 -2.92529,1.60109 -4.27881,2.34671c-3.59912,1.98342 -7.24658,3.80717 -10.70068,6.03083c-0.83496,0.53614 -1.07373,1.22609 -1.29639,1.40187c-1.44727,-0.03369 -1.02393,0.6797 -2.12842,1.17042c-2.49316,1.11183 -8.24707,4.88678 -10.80469,3.88774c-0.22119,-1.77688 0.82324,-17.03194 1.32861,-17.71603c0.58008,3.72807 0.24609,7.65097 0.38818,11.43471l0.14209,0.07031c0.07764,-0.53614 0.05713,-1.06202 0.38965,-1.38429l0.39844,-0.04248c0.95068,-6.30916 0.75586,-13.17789 1.43848,-19.53143l0.10107,-0.65904c-0.32373,-4.85396 0.36768,-10.26677 0.44385,-15.16702c0.03955,-2.51121 0.61963,-5.08321 2.48438,-6.88631c2.10205,-1.13073 4.36963,-2.4636 6.51416,-3.46337c0.77197,-0.36797 2.3584,-1.34518 3.15967,-1.80163c1.93359,-1.10231 3.88184,-2.17927 5.84326,-3.2306c0.9873,-0.78048 5.521,-3.05482 6.82617,-3.69892c0.70166,-0.33252 1.80908,-0.9882 2.52539,-1.37946c1.90137,-1.47643 4.72998,-2.99696 6.90088,-4.08301z" fill="#5e89bc"/><path d="M226.58936,134.52786c-2.91943,-0.40899 -0.52002,-2.76361 -0.24463,-4.06631l-0.16699,-0.19468c-0.33984,0.01289 -0.57861,0.0624 -0.87158,-0.098c0.17725,-1.04313 2.02588,-2.06472 2.53711,-2.81707c0.30762,-0.4525 0.85986,-1.74289 1.1748,-2.35242c0.14502,0.1648 0.5332,0.77184 0.47314,0.71881c0.54492,0.49234 0.91992,0.04439 1.84717,0.43184c0.25488,0.50245 0.11865,1.62087 0.11279,2.31653c0.63867,-0.39991 1.18506,-0.71866 1.75342,-1.22331l0.51123,0.55504l-0.06299,0.12876l-0.00293,0.14575c-0.13916,4.7293 -1.98633,12.89195 -0.10254,17.219c-0.1084,2.2739 -0.0249,5.29738 -1.89258,6.82523c-2.02734,1.65822 -3.88916,1.87649 -4.93359,4.7315l-0.16113,-0.0293c-0.33838,-0.06445 -0.98437,-0.27539 -1.26562,-0.15235c-1.41211,0.61817 -2.92529,1.60109 -4.27881,2.34671c-3.59912,1.98342 -7.24658,3.80717 -10.70068,6.03083c-0.83496,0.53614 -1.07373,1.22609 -1.29639,1.40187c-1.44727,-0.03369 -1.02393,0.6797 -2.12842,1.17042c-2.49316,1.11183 -8.24707,4.88678 -10.80469,3.88774c-0.22119,-1.77688 0.82324,-17.03194 1.32861,-17.71603c0.58008,3.72807 0.24609,7.65097 0.38818,11.43471l0.14209,0.07031c0.07764,-0.53614 0.05713,-1.06202 0.38965,-1.38429l0.39844,-0.04248c-0.20654,1.63771 -0.54639,4.48833 0.21826,5.96052c0.38379,0.20948 0.17285,0.16406 0.66943,0.05127c2.76563,-1.18947 6.61963,-3.59184 9.30029,-5.14899c4.16455,-2.41702 8.50928,-4.82525 12.60938,-7.32284c1.66699,-0.82765 3.15088,-1.65383 4.65527,-2.75687c2.41113,-1.25099 3.33691,-1.76223 5.25732,-3.74126c-3.73242,-2.03469 -0.35156,-5.73684 -1.24805,-8.68604c-0.20801,-0.68365 -0.94336,-0.88478 -1.58057,-1.13102c-1.57324,0.80143 -8.52832,4.70675 -9.65039,3.68955c0.04688,-0.9923 2.38623,-1.82785 2.46826,-2.23714c0.2168,-1.06671 -0.59033,-3.4704 1.19238,-4.29512c1.69043,-0.88199 3.12451,-1.99089 3.96533,-3.72089z" fill="#4f76a7"/><path d="M231.44238,150.90852c-0.16846,-4.821 0.14502,-9.53595 0.62842,-14.32942c0.2168,-2.14778 0.20947,-7.12596 1.58203,-8.65206l-0.00293,0.14575c-0.13916,4.7293 -1.98633,12.89195 -0.10254,17.219c-0.1084,2.2739 -0.0249,5.29738 -1.89258,6.82523c-2.02734,1.65822 -3.88916,1.87649 -4.93359,4.7315l-0.16113,-0.0293c-0.33838,-0.06445 -0.98437,-0.27539 -1.26562,-0.15235c-1.41211,0.61817 -2.92529,1.60109 -4.27881,2.34671c-3.59912,1.98342 -7.24658,3.80717 -10.70068,6.03083c-0.83496,0.53614 -1.07373,1.22609 -1.29639,1.40187c-1.44727,-0.03369 -1.02393,0.6797 -2.12842,1.17042c-2.49316,1.11183 -8.24707,4.88678 -10.80469,3.88774c-0.22119,-1.77688 0.82324,-17.03194 1.32861,-17.71603c0.58008,3.72807 0.24609,7.65097 0.38818,11.43471l0.14209,0.07031c0.07764,-0.53614 0.05713,-1.06202 0.38965,-1.38429l0.39844,-0.04248c-0.20654,1.63771 -0.54639,4.48833 0.21826,5.96052c0.38379,0.20948 0.17285,0.16406 0.66943,0.05127c2.76563,-1.18947 6.61963,-3.59184 9.30029,-5.14899c4.16455,-2.41702 8.50928,-4.82525 12.60938,-7.32284c1.66699,-0.82765 3.15088,-1.65383 4.65527,-2.75687c2.41113,-1.25099 3.33691,-1.76223 5.25732,-3.74126z" fill="#374a68"/><path d="M227.19873,136.54365c0.96973,0.08013 1.73584,-0.02007 1.96875,1.11344c-0.20801,0.88917 -0.66504,1.23649 -1.38574,1.77732c-0.57129,0.00557 -1.43994,-0.52354 -1.98193,-0.80172c0.73535,-0.71075 0.95215,-1.20412 1.39893,-2.08904z" fill="#6b99cc"/><path d="M198.73242,163.86668c0.95068,-6.30916 0.75586,-13.17789 1.43848,-19.53143c1.12646,0.68907 0.94775,2.29588 1.74902,3.77246c1.00488,-0.55665 1.47363,-0.86573 2.39648,-1.55422c1.9834,2.08596 1.79004,5.06988 1.74756,7.81796c1.29639,-0.38233 3.69434,-1.47072 4.47656,0.14502c-0.02051,1.41359 -3.19189,2.6265 -4.35645,3.71342c0.43066,0.48633 0.86133,0.83351 0.94189,1.44728c-0.1084,0.88771 -1.3623,1.53078 -1.79883,2.20755c-0.08643,1.93508 -0.91406,3.76176 -2.31152,5.10211c-1.03125,0.97413 -2.10645,1.47072 -3.43213,1.93948c-0.07324,0.41163 -0.15234,0.58301 0.03662,0.95216c-0.49658,0.11279 -0.28564,0.1582 -0.66943,-0.05127c-0.76465,-1.47219 -0.4248,-4.3228 -0.21826,-5.96052z" fill="#4f76a7"/><path d="M205.32715,161.88472c-0.08643,1.93508 -0.91406,3.76176 -2.31152,5.10211c-1.03125,0.97413 -2.10645,1.47072 -3.43213,1.93948c0.28711,-1.42238 0.1333,-1.96877 -0.12305,-3.37211c1.68604,-1.32423 3.93457,-2.18264 5.8667,-3.66948z" fill="#6b99cc"/><path d="M203.2002,121.62287c2.10205,-1.13073 4.36963,-2.4636 6.51416,-3.46337c-0.22412,0.79557 -0.51123,1.72092 -0.65918,2.52117c0.52588,0.40752 1.06348,0.8149 1.57324,1.24044c-0.23877,0.88829 -0.7749,2.50433 -0.6123,3.34135c0.67236,0.71119 2.5166,0.08233 3.5083,-0.00645c-0.83936,0.6463 -2.85791,2.35198 -3.73975,2.61712l-0.19189,-0.15659l0.05273,-0.97955c0.03223,-0.57144 0.05127,-0.6129 -0.16846,-1.12706c-0.87744,-0.95538 -3.00586,-0.1771 -4.07373,0.19644c-0.44385,3.43407 0.07324,3.24496 1.22314,6.15959c-0.8584,0.53306 -2.62793,1.50485 -2.73779,2.6303c0.72656,0.72159 2.40381,-0.20332 3.20947,-0.54141c0.47021,0.71148 0.79395,1.19899 1.18213,1.96189c0.95361,-0.97091 1.76074,-1.58029 3.11279,-0.64469c0.26514,0.52193 0.21387,0.24756 0.11426,0.85943c-0.6958,1.01354 -2.15771,1.55788 -2.36719,2.18806l0.33398,0.66695l-0.10693,0.30337c-0.49219,0.21006 -0.26221,0.21167 -0.70605,0.09859c-0.2373,-0.35962 -0.4292,-0.66446 -0.64453,-1.03712c-1.8457,1.2882 -2.39648,2.20066 -4.65234,1.79724c-0.2915,-0.05171 -0.58154,-0.10679 -0.87158,-0.16538c-0.82471,0.415 -1.04004,0.53892 -1.77246,1.10773c0.19775,0.63106 0.4248,1.06393 0.24023,1.67331c-0.25342,0.3334 -0.38672,0.50567 -0.68848,0.81197c-0.32373,-4.85396 0.36768,-10.26677 0.44385,-15.16702c0.03955,-2.51121 0.61963,-5.08321 2.48438,-6.88631z" fill="#4f76a7"/><path d="M204.32227,126.30354c0.68848,0.87159 0.57861,4.81837 -0.74121,5.03312l-0.31787,-0.33282c-0.76465,-0.75748 -1.56885,-2.14514 -1.08691,-3.20892c0.41162,-0.90924 1.30078,-1.15021 2.146,-1.49138z" fill="#5e89bc"/><path d="M206.12695,121.54333c0.76172,0.47564 0.61084,2.24182 -0.36914,2.53802l-0.40283,-0.42759c-0.45557,0.12876 -0.66211,0.17798 -1.01367,-0.11279l0.02344,-0.41016c0.54199,-0.96446 0.76025,-1.12575 1.76221,-1.58747z" fill="#5e89bc"/><path d="M234.96973,103.96588c2.20166,2.19802 -1.33154,15.88671 -0.15527,17.10006c-0.46582,0.8899 -0.8877,5.37443 -1.09863,6.73235l-0.51123,-0.55504l-0.50684,-0.43331c-0.23877,-0.5376 0.41895,-2.67938 0.45264,-3.8583l0.00732,-0.25005c-0.44385,0.52647 -0.91846,1.21378 -1.33154,1.77805c-2.90479,-3.34325 -0.16992,-2.42405 0.50977,-3.48403c-0.13037,-1.13571 -1.61279,-1.26271 -0.48926,-2.97704c0.66064,-1.00577 1.69043,-2.15086 1.88672,-3.32025c-0.48926,-1.08986 -3.50244,0.51929 -4.33008,0.89034c-0.104,-0.42745 -0.21826,-1.07828 -0.45557,-1.42062l-0.48193,0.21533l0.03662,-0.2792c0.36621,-0.36211 1.11182,-0.77227 1.17627,-1.22814c0.22119,-1.56227 -0.83057,-3.54731 -1.60986,-4.82716c1.90137,-1.47643 4.72998,-2.99696 6.90088,-4.08301z" fill="#374a68"/><path d="M213.76172,159.95843c4.2041,-3.02054 9.63574,-6.39851 14.30273,-8.55186c-0.56396,1.13966 -1.41211,2.14016 -1.87939,3.2432c-1.50439,1.10304 -2.98828,1.92922 -4.65527,2.75687c-1.59082,-0.57423 -5.47998,2.03616 -7.76807,2.55179z" fill="#6b99cc"/><path d="M220.51758,113.16872c0.92578,1.65134 1.13818,2.58065 3.06738,1.36891l0.17578,-0.11587c0.45703,-0.29883 0.63574,-0.49058 1.15723,-0.4544c2.16211,1.02877 -1.17041,4.47354 -2.81104,4.70323c-0.79248,-0.29825 -0.76172,-0.75191 -1.14844,-1.31603c-0.18604,-0.27349 -1.02246,-0.08394 -1.55566,-0.50889c0.18018,-0.32535 0.49219,-0.47945 0.80859,-0.69273c0.20508,-1.00797 0.2417,-1.9616 0.30615,-2.98421z" fill="#6b99cc"/><path d="M218.71729,113.12726c0.9873,-0.78048 5.521,-3.05482 6.82617,-3.69892c-0.59033,3.73979 -2.6001,1.01002 -1.9585,5.10929c-1.9292,1.21173 -2.1416,0.28243 -3.06738,-1.36891c-0.06445,1.02262 -0.10107,1.97624 -0.30615,2.98421c-1.39307,-1.19064 0.19629,-1.80383 -1.49414,-3.02567z" fill="#4f76a7"/><path d="M222.62402,138.24875c-0.24756,-0.2127 -0.27686,-0.33252 -0.26221,-0.68512c0.07178,-1.71125 2.82715,-2.94335 4.22754,-3.03578c-0.84082,1.73 -2.2749,2.8389 -3.96533,3.72089z" fill="#6b99cc"/><path d="M221.95313,148.60576c0.54199,0.26514 1.1543,0.46143 1.229,1.09865c-0.72363,0.9712 -4.34912,2.86527 -5.80518,3.9229c-0.46582,0.04834 -0.69873,0.09522 -1.09277,-0.14356l-0.05566,-0.27979c0.7207,-1.51613 3.25635,-2.20901 4.53076,-3.04398c0.31787,-0.20801 0.95215,-1.18947 1.19385,-1.55422z" fill="#6b99cc"/><path d="M217.16895,145.46246c0.39404,0.38101 0.82764,1.13204 0.73242,1.68723l-0.64307,0.03076c-2.05078,0.08936 -2.23096,1.42677 -4.6626,2.36282c-0.60352,-0.09961 -0.65479,0.00586 -0.9375,-0.34717c0.14355,-1.15724 4.40771,-3.20863 5.51074,-3.73364z" fill="#4f76a7"/><path d="M216.90674,126.09729c0.375,0.39449 1.33447,1.60402 1.36084,2.17239c0.0249,0.52471 -0.20361,0.63721 -0.54492,1.05822c-0.37646,0.0104 -0.89209,0.11587 -1.15869,-0.18574c-0.95947,-1.08649 -0.59619,-2.17459 0.34277,-3.04486z" fill="#6b99cc"/><path d="M215.82422,142.93045l0.29443,0.09492c0.56689,0.72364 0.44971,1.92248 -0.26074,2.50711l-0.34131,-0.04717c-0.60937,-0.49571 -1.23926,-0.78253 -1.19092,-1.60109c0.36621,-0.49219 0.92578,-0.67896 1.49854,-0.95377z" fill="#6b99cc"/><path d="M52.32642,43.21135c0.87891,0.10225 2.64961,-0.88199 3.15688,-0.519c5.19082,3.71386 9.89692,8.97008 14.15347,13.50836c2.91035,3.10272 17.37935,18.46076 20.1334,19.33236c-0.62695,0.62388 -0.87627,0.83834 -1.59697,1.36188c-3.49805,-2.64012 -7.79268,-7.26791 -11.03496,-10.37048c-2.01636,-1.92922 -4.83091,-4.42564 -6.69009,-6.36804c-1.58379,-1.67419 -17.15581,-16.4602 -18.12173,-16.94507z" fill="#666b76"/><path d="M149.95459,145.88859c0.41162,-0.54449 0.23438,-0.48121 0.77197,-0.62916c0.88916,0.1648 1.42969,0.7339 2.09473,1.34533c0.17578,1.89846 0.06445,4.78717 0.03662,6.77645l-0.20508,11.54457c-0.11426,6.30183 -0.28857,12.6022 -0.52295,18.9011c-0.08203,2.1343 -0.34424,11.95766 -1.21143,13.44156c-0.84082,-0.4087 -1.86328,-1.74172 -2.52246,-2.49466c0.37061,-0.25782 1.30664,-0.87599 1.3374,-1.34035c0.48926,-7.25546 0.63721,-14.87127 0.87891,-22.11647l0.46875,-12.55386c0.13916,-3.0308 0.271,-6.28279 0.21387,-9.31945c-0.01904,-1.05324 -0.85547,-2.60745 -1.34033,-3.55507z" fill="#4d4e57"/><path d="M203.2002,121.62287c-0.52588,-0.33604 -0.77197,-0.39654 -0.65771,-1.04547c1.5791,-1.84294 29.55469,-16.93204 33.67236,-18.9055c-0.62256,1.29904 -1.35059,0.96051 -1.47363,1.86125l0.22852,0.43272c-2.1709,1.08605 -4.99951,2.60657 -6.90088,4.08301c-0.71631,0.39126 -1.82373,1.04694 -2.52539,1.37946c-1.30518,0.6441 -5.83887,2.91844 -6.82617,3.69892c-1.96143,1.05133 -3.90967,2.1283 -5.84326,3.2306c-0.80127,0.45645 -2.3877,1.43366 -3.15967,1.80163c-2.14453,0.99977 -4.41211,2.33264 -6.51416,3.46337z" fill="#4d4e57"/><path d="M157.41064,145.55636c2.9165,-2.84359 39.5874,-23.56624 41.47998,-23.48172l0.13916,0.22588c-0.08496,0.51124 -0.16113,0.56485 -0.47168,1.00358c-2.13135,1.05719 -4.41943,2.36971 -6.52002,3.52636c-1.43848,0.79205 -3.54346,1.87561 -4.86475,2.74383c-2.64844,1.32423 -5.42432,2.88856 -8.02295,4.32691c-2.00244,1.10934 -4.60254,2.52425 -6.43945,3.82212c-3.6123,1.9947 -11.81104,6.79417 -15.30029,7.83305z" fill="#666b76"/><path d="M52.23325,43.09812l0.09316,0.11323c0.96592,0.48487 16.53794,15.27088 18.12173,16.94507c-0.42217,0.24756 -0.87949,0.51885 -1.38574,0.49468c-1.08164,-0.05171 -11.87681,-10.73333 -13.30078,-12.22339c-1.34854,-1.38752 -2.62485,-2.84359 -3.82354,-4.36236c-0.04819,-0.41089 0.10239,-0.5962 0.29517,-0.96725z" fill="#080b0f"/><path d="M119.36074,62.64229c1.35542,-0.22925 2.7627,-0.6482 3.96182,0.33135c8.7334,7.13548 16.81743,15.09876 25.28145,22.5615c0.74854,0.66109 1.04443,2.81092 1.69336,2.62474c3.73242,-1.06891 4.6377,-2.68377 8.78906,-2.41966c1.93359,1.36965 6.78076,6.21863 8.74951,8.05468c5.63525,5.25753 11.61328,10.22034 17.25293,15.39774l7.39014,6.83387c1.50146,1.40026 2.97803,2.92884 4.59668,4.16738c-2.20752,1.72795 -4.66113,3.21698 -7.08105,4.62896c-8.21631,4.79449 -16.62305,9.33175 -24.9917,13.85876c-2.37891,1.27809 -4.75195,2.56951 -7.11914,3.87412c-0.94189,0.52969 -3.25928,2.11438 -4.2041,2.16199c-1.55859,-0.91012 -4.89844,-4.30772 -6.41602,-5.64074c-4.07476,-3.57939 -8.01108,-7.40355 -11.87358,-11.21175c-1.55127,-1.52946 -3.30469,-2.98451 -4.73774,-4.60919c-1.6998,-0.72979 -14.55762,-13.29405 -15.89531,-15.4496c0.21313,-0.39009 0.45747,-0.79674 0.68086,-1.18434c-3.69243,-2.79803 -8.28018,-7.18544 -11.69136,-10.39436c-5.4832,-5.10944 -10.87632,-10.31482 -16.17686,-15.61351c1.78389,-1.6509 3.30249,-2.58431 5.53916,-3.56064c0.89238,-0.72452 7.30576,-3.95718 8.86538,-4.79903c5.61885,-3.03299 11.70645,-6.77191 17.38652,-9.61227z" fill="#797c85"/><path d="M119.36074,62.64229c0.63428,0.02856 2.01592,0.06914 2.49419,0.43243c1.45488,1.10538 2.96572,2.54373 4.32905,3.77744l9.20508,8.36275c2.97144,2.69871 8.87007,7.57875 11.28135,10.22927c0.19336,0.2127 0.38232,0.42876 0.56982,0.64776c-2.04902,1.84338 -3.01772,2.27156 -5.21689,3.70463c-0.57466,0.35713 -1.05117,0.66666 -1.66406,0.96197c-4.08691,2.14075 -18.86631,11.34095 -21.66504,11.77646c-0.95039,0.1478 -1.96055,-0.32974 -2.71743,-0.86119c-1.93931,-1.36173 -3.67749,-3.3081 -5.39897,-4.94786c-5.70879,-5.43756 -10.98501,-11.43939 -17.33262,-16.15683l-0.17915,-0.26118c-1.01133,-1.44772 -0.67998,-1.70979 0.04277,-3.25434c0.89238,-0.72452 7.30576,-3.95718 8.86538,-4.79903c5.61885,-3.03299 11.70645,-6.77191 17.38652,-9.61227z" fill="#6b99cc"/><path d="M132.57319,84.74558c0.65098,-0.35831 2.01475,-0.72232 2.31548,-1.10377c-0.11206,-0.37222 -0.11675,-0.26221 -0.10488,-0.63121c1.21611,-0.173 6.51284,5.59709 7.23955,6.78597c-0.57466,0.35713 -1.05117,0.66666 -1.66406,0.96197c-1.99468,-1.45446 -1.17129,-2.29251 -4.0418,-3.95527c0.32886,0.9277 1.12441,2.56409 0.9791,3.53119c-0.2187,1.45593 -2.0751,1.38708 -2.64141,1.83298c-0.04497,0.35743 -0.02856,0.49556 -0.21372,0.80186c-0.91758,0.20742 -6.98188,-4.25938 -5.84165,-5.90266c0.80391,0.0564 2.96396,3.11986 4.06978,3.39643c0.31787,-0.49087 0.56689,-0.69097 0.71924,-1.23517c-0.12407,-0.48956 -0.88389,-1.25275 -1.32129,-1.92292c0.80801,0.15703 1.79502,0.56104 2.29058,-0.21387c-0.14458,-0.96373 -1.07417,-1.66672 -1.78491,-2.34554z" fill="#5e89bc"/><path d="M112.78843,85.14915c1.82139,0.64102 5.77471,6.13279 5.59717,7.94863c-1.52607,0.3876 -2.28252,-1.03053 -2.92617,-2.18923c-1.13276,-2.03923 -2.28867,-3.4143 -2.671,-5.75939z" fill="#5e89bc"/><path d="M110.44922,92.76013c2.1022,0.44136 6.0936,0.30381 7.47173,1.30724c0.19277,0.71427 -0.1957,0.08628 -0.44546,1.05704c-0.06753,0.42408 -0.05669,0.5543 -0.31245,0.9069c-0.58198,0.15835 -6.23584,-2.74046 -6.71382,-3.27118z" fill="#5e89bc"/><path d="M139.72104,82.68276c1.2564,0.58243 2.34668,2.35022 2.79346,3.61821c-1.89404,-0.67076 -2.27139,-1.86931 -2.79346,-3.61821z" fill="#5e89bc"/><path d="M109.80835,67.94992c1.84834,0.51812 2.55293,1.72107 3.01772,3.45195c-1.08706,-0.46788 -2.53125,-2.31023 -3.01772,-3.45195z" fill="#5e89bc"/><path d="M87.56968,80.61423c1.78389,-1.6509 3.30249,-2.58431 5.53916,-3.56064c-0.72275,1.54455 -1.0541,1.80661 -0.04277,3.25434l0.17915,0.26118c-0.55151,0.48926 -0.3375,0.44502 -0.94819,0.49278c-1.02656,-0.38497 -1.53003,-1.21554 -2.0502,-1.19064c-0.07412,0.23555 -0.16436,0.32989 -0.04746,0.4626c1.4436,1.64064 3.59663,3.69716 5.14233,5.16451l15.60952,14.71043c0.95024,0.90543 5.21455,4.47354 5.39751,5.28698l-0.08159,0.20801c-0.08965,0.23482 -0.10957,0.28828 -0.16392,0.5209c5.79141,7.32372 14.12314,13.88703 20.95356,20.3311c3.2269,3.04427 6.40576,5.59167 9.12642,9.17369c-3.76084,-2.0656 -13.01265,-12.54668 -15.53086,-12.47344c-1.6998,-0.72979 -14.55762,-13.29405 -15.89531,-15.4496c0.21313,-0.39009 0.45747,-0.79674 0.68086,-1.18434c-3.69243,-2.79803 -8.28018,-7.18544 -11.69136,-10.39436c-5.4832,-5.10944 -10.87632,-10.31482 -16.17686,-15.61351z" fill="#666b76"/><path d="M124.94063,103.35591c7.99468,-3.69438 15.53701,-8.3541 23.37773,-12.37119c2.15479,-1.10392 4.23633,-2.45013 6.49805,-3.31674c1.05908,-0.40621 2.43457,-0.88756 3.55371,-0.50069c1.96289,0.67838 31.35352,27.23616 35.44775,31.10808c-1.04443,3.2851 -5.12695,4.82027 -8.05664,6.04753c-2.31738,1.67829 -7.45166,4.15845 -10.13086,5.73508c-1.75488,1.0985 -2.59131,1.25685 -4.08105,2.12932c-4.17627,2.4472 -10.29639,6.55921 -14.87988,7.80976c-3.88623,-2.24739 -7.88965,-6.40218 -11.23315,-9.49069l-14.09634,-13.07872l-6.49687,-6.05676c-1.13862,-1.0629 -3.47183,-3.10316 -4.23091,-4.26113c-0.11001,-1.65515 2.32515,-2.68319 3.60615,-3.39775z" fill="#6b99cc"/><path d="M177.52588,125.73532c4.22314,1.56022 5.03613,-1.60314 8.23535,-1.41242c-2.31738,1.67829 -7.45166,4.15845 -10.13086,5.73508l0.04248,-3.35248c0.63281,-0.45953 1.14697,-0.65714 1.85303,-0.97018z" fill="#5e89bc"/><path d="M124.21831,103.71202l0.72231,-0.35611c1.51245,1.30182 2.38066,2.0199 3.29019,3.80732c-1.98999,-1.08165 -2.60845,-1.68254 -4.0125,-3.45121z" fill="#5e89bc"/><path d="M196.08984,65.02547c1.17188,0.62828 2.44922,1.43791 3.46436,2.2947c4.49561,3.79633 8.8667,7.6476 13.4209,11.38666l12.05566,9.82849c2.18701,1.78669 5.92822,4.62955 7.54688,6.69339c0.104,0.59122 -1.15723,1.48991 -1.6626,1.78493c-9.4541,5.51608 -19.11768,10.71121 -28.80322,15.80805c-1.16162,0.61099 -2.51514,0.99728 -3.79102,1.26579c-2.18701,-1.41886 -4.3916,-3.2662 -6.42187,-4.92896c-3.39844,-2.7951 -6.73682,-5.66198 -10.01221,-8.59873c-1.11328,-1.00856 -2.34521,-2.29895 -3.42187,-3.22914c-2.40527,-1.7177 -5.87549,-4.78028 -8.07129,-6.85892c-2.23389,-1.94358 -6.73096,-5.53307 -7.99951,-8.02466c2.35693,-1.95222 9.40723,-5.82985 12.44678,-7.36166c6.03809,-3.04354 14.92822,-8.02656 21.24902,-10.05993z" fill="#6b99cc"/><path d="M170.39355,90.47172c1.50586,-0.06958 2.67627,-0.33955 3.96826,-0.41734c0.47168,0.40782 0.82178,0.63136 1.06494,1.19826c-0.00439,0.47476 -0.09814,0.6126 -0.28125,1.04283c0.2417,1.95793 2.7583,2.86102 3.31934,5.03517c-2.40527,-1.7177 -5.87549,-4.78028 -8.07129,-6.85892z" fill="#5e89bc"/><path d="M235.7124,99.15425l0.30908,0.09551c0.48047,1.15929 -4.13086,3.32948 -5.12402,3.88847l-7.5835,4.24619c-6.03223,3.35805 -12.07471,6.75052 -18.24756,9.83962c-1.51025,0.75543 -3.04395,1.54396 -4.63037,2.1239c-0.16406,0.05508 -0.07617,0.05405 -0.26367,-0.03677c0.69727,-0.73507 6.21973,-3.97666 7.50732,-4.70264c9.11133,-5.13478 18.6416,-10.9658 28.03271,-15.45428z" fill="#797c85"/></g></svg></svg>